<?xml version="1.0" encoding="UTF-8" standalone="no"?>
<!-- Created with Inkscape (http://www.inkscape.org/) -->

<svg
   version="1.1"
   id="svg1"
   width="944.96002"
   height="944.96002"
   viewBox="0 0 944.96002 944.96002"
   sodipodi:docname="triangel graphic.svg"
   inkscape:version="1.4.2 (f4327f4, 2025-05-13)"
   xmlns:inkscape="http://www.inkscape.org/namespaces/inkscape"
   xmlns:sodipodi="http://sodipodi.sourceforge.net/DTD/sodipodi-0.dtd"
   xmlns="http://www.w3.org/2000/svg"
   xmlns:svg="http://www.w3.org/2000/svg">
  <defs
     id="defs1" />
  <sodipodi:namedview
     id="namedview1"
     pagecolor="#000000"
     bordercolor="#000000"
     borderopacity="0.25"
     inkscape:showpageshadow="2"
     inkscape:pageopacity="0.0"
     inkscape:pagecheckerboard="0"
     inkscape:deskcolor="#d1d1d1"
     inkscape:zoom="1.9207162"
     inkscape:cx="472.48001"
     inkscape:cy="472.48001"
     inkscape:window-width="3840"
     inkscape:window-height="2054"
     inkscape:window-x="2149"
     inkscape:window-y="827"
     inkscape:window-maximized="1"
     inkscape:current-layer="g1" />
  <g
     inkscape:groupmode="layer"
     inkscape:label="Image"
     id="g1">
    <path
       style="fill:#ffffff;fill-opacity:1"
       d="m 22.808001,929.29809 c 0.0836,-0.0781 11.485012,-6.6645 25.336472,-14.63651 l 25.184472,-14.49458 0.58178,0.52561 c 2.214191,2.00038 4.952382,3.10296 8.097561,3.26061 6.016591,0.30158 11.258335,-3.40514 13.05684,-9.2332 0.311598,-1.00973 0.370675,-1.55517 0.372595,-3.44 0.0013,-1.232 -0.03372,-2.57921 -0.07772,-2.99381 l -0.08,-0.75381 L 119.2,873.7533 c 13.156,-7.57851 24.03855,-13.84383 24.18343,-13.92295 0.21805,-0.11907 0.50545,0.24844 1.66799,2.13291 5.61331,9.09909 11.9265,17.62147 19.16653,25.87352 2.03569,2.32024 8.71815,9.40952 9.58027,10.1635 0.28698,0.25098 1.42367,1.3256 2.52598,2.38804 9.77189,9.41843 22.68913,19.33376 35.9558,27.5998 1.166,0.7265 2.12,1.35038 2.12,1.3864 0,0.036 -43.1424,0.0655 -95.872,0.0655 -55.787231,0 -95.808447,-0.0593 -95.719999,-0.14193 z m 210.472009,0.0716 c 0,-0.0387 1.17,-0.92731 2.6,-1.97477 20.23824,-14.8243 39.47833,-26.95554 59.88,-37.75549 8.32752,-4.4083 21.02631,-10.46709 28.56884,-13.63063 l 1.20885,-0.50702 49.43115,26.82769 c 27.18714,14.75523 49.49956,26.89133 49.58316,26.96911 0.088,0.0819 -40.12923,0.14141 -95.56,0.14141 -52.6416,0 -95.712,-0.0316 -95.712,-0.0703 z m 156.24,-25.85943 c -26.224,-14.2461 -49.75906,-27.03009 -52.30013,-28.40887 l -4.62013,-2.50686 0.94013,-0.3871 c 5.54228,-2.28206 19.87612,-7.27652 27.18013,-9.47059 24.94235,-7.49253 50.14993,-11.82677 74.48,-12.80625 2.156,-0.0868 5.2344,-0.19811 6.8409,-0.24738 l 2.9209,-0.0896 -0.0409,13.62553 -0.0409,13.62552 -0.64457,0.19031 c -0.96764,0.28569 -2.78182,1.28302 -3.6795,2.02276 -1.90001,1.56573 -3.47951,4.11786 -4.00201,6.46644 -0.39131,1.75884 -0.26329,4.51247 0.28826,6.20028 0.56551,1.73052 1.57557,3.35106 2.91213,4.67219 1.4457,1.42902 2.79769,2.23109 5.08569,3.01709 0.26399,0.0907 0.28,0.95212 0.28,15.06121 v 14.96502 l -3.96,-0.0139 -3.96,-0.0139 z m 61.62667,25.82306 c -0.0587,-0.0587 -0.10667,-6.81701 -0.10667,-15.01856 V 899.4029 l 0.92,-0.3372 c 3.34935,-1.22761 6.17709,-4.21656 7.14517,-7.55251 1.34513,-4.63529 -0.26933,-9.79458 -3.92484,-12.54247 -1.0609,-0.7975 -2.66702,-1.66603 -3.70033,-2.00101 l -0.6,-0.19451 v -13.58331 -13.58331 l 2.6,0.081 c 9.31698,0.29031 16.1872,0.71335 23.32,1.43594 25.74607,2.6082 51.72834,8.71207 77.28,18.15495 6.06311,2.24068 8.72283,3.29745 8.7008,3.45703 -0.0106,0.0765 -23.44657,12.86161 -52.08001,28.41133 l -52.06079,28.27223 -3.69333,0.009 c -2.03134,0.005 -3.74134,-0.0385 -3.8,-0.0972 z m 20.14133,-0.0288 c 0.1776,-0.15829 98.28414,-53.40247 98.67355,-53.5519 0.77653,-0.29798 20.76365,9.12943 31.56737,14.88953 18.97695,10.11771 37.44628,21.74357 56.60528,35.63124 1.95019,1.41362 3.68781,2.70441 3.86136,2.86842 0.30789,0.29094 -2.00803,0.29819 -95.272,0.29819 -52.57316,0 -95.51916,-0.061 -95.43556,-0.13548 z m 210.24001,-0.002 c 0.0836,-0.0759 1.232,-0.80773 2.552,-1.62632 21.85815,-13.55519 40.84016,-30.45676 55.43098,-49.35571 3.83429,-4.96641 8.44108,-11.63071 11.36391,-16.43931 l 1.33682,-2.19931 0.97414,0.54808 c 0.53578,0.30144 11.41415,6.56233 24.17415,13.91309 l 23.2,13.36502 -0.0483,0.52621 c -0.0266,0.28942 -0.0611,1.64222 -0.0766,3.00622 -0.0276,2.42198 -0.016,2.51556 0.49651,4 0.68431,1.982 1.56248,3.44115 2.95028,4.90215 2.69946,2.84182 6.06349,4.18897 10.03817,4.01986 1.5077,-0.0641 2.11451,-0.1704 3.36,-0.58832 1.752,-0.58789 3.2764,-1.44193 4.43823,-2.48652 l 0.8134,-0.73131 25.17418,14.49269 c 13.84581,7.97098 25.24259,14.55991 25.32619,14.64207 0.0941,0.0925 -36.35869,0.14938 -95.752,0.14938 -53.74048,0 -95.83718,-0.0607 -95.752,-0.13797 z m -460.72801,-3.08082 c -14.4332,-8.57148 -26.6089,-17.48208 -37.68001,-27.57553 -3.21867,-2.93443 -10.60872,-10.41022 -13.44964,-13.60568 -7.50312,-8.43947 -14.34455,-17.59904 -19.65342,-26.31271 l -1.21407,-1.9927 0.43857,-0.27174 c 0.24121,-0.14946 13.97456,-8.06256 30.51856,-17.58467 16.544,-9.52211 30.16563,-17.3823 30.27029,-17.46709 0.13253,-0.10736 0.52108,0.11967 1.28,0.7479 1.32129,1.09374 3.51923,2.20664 5.24972,2.65813 1.77444,0.46296 4.47601,0.46227 6.22559,-0.002 0.69608,-0.18455 1.28474,-0.33554 1.30815,-0.33554 0.0894,0 1.41584,3.55721 2.32334,6.23047 2.91196,8.57782 4.76444,17.84744 5.69349,28.48953 0.35616,4.07979 0.40918,18.69595 0.0824,22.72 -0.96351,11.86529 -2.33052,21.06068 -4.7691,32.08 -1.40402,6.34442 -3.35713,14.01116 -3.56384,13.98954 -0.055,-0.006 -1.43204,-0.80151 -3.06004,-1.76833 z m 451.04001,1.72201 c 0,-0.0312 -0.60709,-2.46123 -1.34909,-5.4 -3.81066,-15.0925 -5.78586,-27.02919 -6.8412,-41.34322 -0.27214,-3.6911 -0.27312,-16.95146 -0.002,-20.4 0.95479,-12.12255 2.94079,-22.06404 6.29672,-31.52 0.59724,-1.68283 1.73019,-4.66368 1.80924,-4.76022 0.0181,-0.0221 0.60284,0.1098 1.29939,0.29316 1.48694,0.39143 4.06575,0.46468 5.65139,0.16053 2.06068,-0.39527 4.63002,-1.68438 6.21981,-3.12067 l 0.63317,-0.57202 30.67133,17.66324 c 16.86924,9.71478 30.70939,17.70129 30.7559,17.7478 0.0989,0.099 -3.05485,5.1858 -5.07661,8.18818 -10.60466,15.74828 -23.79808,29.98775 -39.34854,42.46834 -8.44146,6.775 -17.80817,13.19745 -27.63291,18.947 -2.74068,1.60388 -3.08709,1.78879 -3.08709,1.64788 z M 19.719682,924.06078 c 0.04632,-0.0774 16.731373,-28.97676 37.077887,-64.22076 20.346514,-35.244 41.680555,-72.19848 47.408981,-82.12107 5.72842,-9.92259 10.46091,-17.98659 10.51665,-17.92 0.0557,0.0666 0.22292,1.88507 0.37153,4.04107 1.69086,24.52984 7.05902,48.56774 15.51155,69.45862 2.49594,6.16884 6.44648,14.5864 9.09771,19.38479 0.54071,0.97862 0.90607,1.81053 0.829,1.8876 -0.0758,0.0758 -10.94709,6.36245 -24.15845,13.97035 l -24.020659,13.83255 -0.776939,-0.72612 c -1.540656,-1.43988 -3.04005,-2.31448 -5.17694,-3.0197 -1.229538,-0.40578 -1.582553,-0.44975 -3.68,-0.45836 -2.594564,-0.0107 -3.923243,0.26634 -5.807869,1.2108 -3.54913,1.77861 -5.871485,4.66788 -6.943787,8.63883 -0.378859,1.40299 -0.378417,4.63986 8.26e-4,6.0445 0.152039,0.56313 0.257174,1.03998 0.233633,1.05968 -0.09795,0.082 -50.272181,28.96159 -50.413257,29.01722 -0.08475,0.0334 -0.116189,-0.003 -0.06987,-0.08 z M 851.1944,909.82234 c -13.68091,-7.87725 -25.027,-14.42129 -25.21353,-14.54232 -0.32645,-0.21181 -0.33051,-0.25188 -0.10846,-1.07003 0.36915,-1.36011 0.4454,-4.00334 0.15901,-5.5124 -0.5217,-2.74898 -1.63448,-4.81518 -3.70264,-6.87498 -1.26649,-1.26138 -1.68833,-1.56801 -3.13604,-2.27959 -2.07346,-1.01914 -3.12914,-1.30225 -5.27272,-1.41399 -3.58758,-0.18703 -6.94531,1.02448 -9.44347,3.40733 l -0.90399,0.86226 -24.06627,-13.85257 c -13.23645,-7.61891 -24.11566,-13.9006 -24.17603,-13.9593 -0.0604,-0.0587 0.67546,-1.58273 1.63517,-3.38673 8.28422,-15.57212 14.85983,-33.88615 18.93693,-52.74214 2.29898,-10.63247 4.03024,-22.7514 4.81964,-33.73786 0.13911,-1.936 0.30357,-3.89296 0.36547,-4.3488 l 0.11255,-0.82879 7.86421,13.62879 c 4.32532,7.49584 25.69301,44.50911 47.48376,82.25171 21.79075,37.7426 39.59732,68.64513 39.57017,68.67229 -0.0272,0.0272 -11.24285,-6.39564 -24.92376,-14.27288 z m -189.83438,11.48358 c -10.35562,-7.53515 -21.94848,-15.30832 -32.71095,-21.93313 -15.84558,-9.75371 -31.94909,-18.33747 -48.06022,-25.61787 -2.09614,-0.94722 -3.74253,-1.76463 -3.65865,-1.81648 0.84175,-0.52022 88.58418,-48.07739 88.62568,-48.03589 0.0307,0.0307 -0.0975,0.44323 -0.28505,0.91667 -1.25873,3.17826 -2.77595,8.01203 -3.89321,12.40349 -1.80758,7.10481 -2.96334,14.5193 -3.65025,23.41731 -0.27192,3.52234 -0.27151,16.9038 6.4e-4,20.72 0.96714,13.56179 2.92172,25.89925 6.33071,39.96 0.29336,1.21 0.49017,2.19954 0.43734,2.19897 -0.0528,-5.7e-4 -1.46404,-0.99645 -3.13604,-2.21307 z m -429.92335,1.62159 c 1.17592,-4.57109 3.06188,-13.50679 3.99481,-18.92749 2.07633,-12.06423 2.9697,-22.06125 2.96689,-33.2 -0.003,-10.80524 -0.81384,-19.26481 -2.73833,-28.56 -1.1757,-5.67856 -3.35138,-13.19353 -5.08804,-17.57446 -0.1863,-0.46994 -0.272,-0.82994 -0.19045,-0.8 0.64353,0.23636 88.31537,47.92392 88.28818,48.02281 -0.0194,0.0706 -1.36604,0.72275 -2.99251,1.44924 -9.56665,4.27308 -20.90084,9.96507 -31.03721,15.58678 -16.28156,9.02987 -33.5751,20.10413 -49.75943,31.86445 -3.10872,2.25895 -3.54446,2.52954 -3.44391,2.13867 z M 80.407896,897.75214 c -2.056435,-0.72926 -3.666782,-2.28805 -4.406678,-4.2656 -1.640932,-4.38578 1.451681,-9.15311 6.126924,-9.44479 2.12062,-0.1323 3.695941,0.42925 5.28926,1.88545 0.633613,0.57909 1.077529,1.18213 1.501131,2.03923 0.590347,1.19449 0.601469,1.25117 0.601469,3.06529 0,1.74766 -0.02789,1.90718 -0.512232,2.92967 -0.718797,1.51744 -1.906111,2.71999 -3.390369,3.43389 -1.067532,0.51346 -1.365238,0.58281 -2.727855,0.63543 -1.253019,0.0484 -1.701675,-0.002 -2.48165,-0.27857 z m 730.754034,0.0172 c -2.30344,-0.73635 -4.0095,-2.51033 -4.68806,-4.87468 -0.35179,-1.22579 -0.2528,-3.18825 0.22268,-4.41462 0.67855,-1.75011 2.24567,-3.32192 4.02347,-4.03549 1.17342,-0.47099 3.67017,-0.50739 4.91975,-0.0717 1.77046,0.61726 3.45231,2.25707 4.2195,4.114 0.52397,1.26826 0.52986,3.6805 0.0123,5.04365 -0.4711,1.24079 -1.55535,2.6213 -2.62944,3.34789 -1.70936,1.15635 -4.13718,1.51212 -6.0802,0.89098 z m -364.52192,-4.06661 c -1.23821,-0.3194 -2.03853,-0.80491 -2.92419,-1.77397 -1.14973,-1.25798 -1.52612,-2.32659 -1.44016,-4.08872 0.11005,-2.25608 1.1293,-3.82488 3.18992,-4.90987 0.77144,-0.40619 1.00983,-0.4499 2.45443,-0.45001 1.45211,-1.1e-4 1.68549,0.0432 2.52489,0.46852 2.88189,1.46024 4.03937,4.92125 2.59746,7.76672 -1.15068,2.27077 -4.00932,3.60461 -6.40235,2.98733 z M 278.75328,843.3626 c -25.89711,-14.0589 -47.11796,-25.59394 -47.15744,-25.63342 -0.0395,-0.0395 0.0786,-0.49869 0.26231,-1.02047 0.78238,-2.22166 0.99671,-4.85141 0.56379,-6.91764 l -0.21139,-1.00894 2.89473,-1.72565 c 1.5921,-0.9491 9.17116,-5.33769 16.84237,-9.75241 l 13.94764,-8.02677 1.17236,0.8838 c 1.25779,0.9482 2.96814,1.6988 4.52174,1.98439 4.64197,0.85333 9.43108,-1.53995 11.5109,-5.75239 0.96852,-1.96161 1.28108,-3.42697 1.15886,-5.43308 -0.0509,-0.836 -0.11207,-1.65964 -0.13587,-1.8303 -0.0357,-0.2563 2.36516,-1.69499 13.79673,-8.26741 7.612,-4.37642 14.40204,-8.29474 15.08899,-8.70738 0.68695,-0.41264 1.27253,-0.72431 1.3013,-0.69259 0.0288,0.0317 0.82066,1.27362 1.75975,2.75977 14.68855,23.24505 36.50713,42.93572 61.35302,55.36943 18.16775,9.09175 37.31606,14.51673 57.05694,16.16503 2.52148,0.21054 8.79619,0.56253 10.04,0.56321 l 0.44,2.4e-4 v 3.66337 3.66336 l -2.28,0.0898 c -1.254,0.0494 -4.44,0.16859 -7.08,0.2649 -24.82658,0.90577 -50.98551,5.36881 -76.56,13.06209 -9.19548,2.76617 -22.57425,7.48498 -30.24,10.66592 -0.748,0.31038 -1.72024,0.70619 -2.16054,0.87957 l -0.80053,0.31523 z m 285.96673,23.68108 c -21.82114,-8.80182 -45.04757,-15.37164 -67.85357,-19.19305 -13.02985,-2.1833 -27.44826,-3.62928 -39.18643,-3.92988 -1.936,-0.0496 -4.258,-0.13096 -5.16,-0.18084 l -1.64,-0.0907 v -3.6485 -3.64849 l 2.04,-0.10224 c 7.04771,-0.35322 10.55499,-0.64928 15.4,-1.29996 31.05951,-4.17131 60.10053,-17.47708 83.28,-38.15653 11.1813,-9.97534 21.09149,-21.71939 28.70776,-34.02008 l 1.00714,-1.62658 1.62255,0.99639 c 0.89241,0.54801 7.80152,4.55109 15.35359,8.89574 12.19776,7.01728 13.72114,7.9363 13.6424,8.2302 -0.0488,0.18196 -0.13095,0.87084 -0.18267,1.53084 -0.18806,2.39989 0.65894,5.21345 2.17742,7.23297 3.56677,4.74365 10.71287,5.67343 15.24334,1.98331 l 0.86696,-0.70615 14.78076,8.50941 c 18.11528,10.42913 18.79231,10.83495 18.74392,11.23553 -0.0203,0.16771 -0.11928,0.80893 -0.22003,1.42493 -0.25415,1.55379 -0.0848,3.71157 0.42057,5.36 0.22934,0.748 0.43033,1.49075 0.44664,1.65055 0.0236,0.23089 -9.64497,5.54392 -47.09035,25.87699 -25.916,14.07255 -47.264,25.57774 -47.44,25.56708 -0.176,-0.0106 -2.408,-0.86158 -4.96,-1.89096 z M 144.84032,849.72611 c -12.98952,-24.00927 -21.04359,-52.43903 -23.62871,-83.40609 -0.43234,-5.17904 -0.9921,-15.07285 -0.86023,-15.20472 0.0268,-0.0268 2.13666,0.47832 4.68865,1.12241 26.48184,6.68372 48.07252,16.25548 64.69582,28.68151 7.50731,5.61177 14.52414,12.33169 20.02573,19.17838 l 1.61244,2.00666 -0.99054,1.05889 c -3.03715,3.24672 -4.26145,7.46269 -3.40355,11.72036 0.14296,0.70949 0.23296,1.31657 0.2,1.34906 -0.0875,0.0862 -60.9884,35.15042 -61.1912,35.23132 -0.0942,0.0376 -0.61098,-0.74442 -1.14841,-1.73778 z m 574.5197,-15.81081 c -16.764,-9.66781 -30.54021,-17.60183 -30.61379,-17.63115 -0.0736,-0.0293 -0.0196,-0.60622 0.12,-1.28198 0.89285,-4.32258 -0.3515,-8.68853 -3.36643,-11.81146 l -1.01302,-1.04931 1.46254,-1.83069 c 16.20975,-20.29006 41.16163,-35.41319 74.78035,-45.32378 3.93105,-1.15885 9.0413,-2.53146 12.53331,-3.36644 l 2.30297,-0.55067 -0.10712,2.5851 c -1.35882,32.79271 -7.83295,61.22582 -19.76982,86.8251 -2.07838,4.45719 -5.51594,11.05587 -5.74427,11.02656 -0.0576,-0.007 -13.82072,-7.92347 -30.58472,-17.59128 z m -279.04001,-3.69267 c -24.54682,-1.20397 -48.585,-8.49247 -69.76,-21.1516 -24.85669,-14.86017 -45.21521,-36.97343 -57.77157,-62.75101 -9.11673,-18.7162 -14.06817,-37.81021 -15.20316,-58.62732 -0.23815,-4.36795 -0.10042,-15.30462 0.24497,-19.45268 1.66353,-19.97855 6.83548,-38.32162 15.85723,-56.24001 12.01791,-23.86915 31.05279,-44.77916 53.75253,-59.04768 22.14373,-13.91903 46.59825,-21.66107 72.8,-23.04771 4.42217,-0.23403 15.02723,-0.0974 19.2,0.2474 28.79538,2.37925 55.56269,12.47988 78.4,29.58419 6.10004,4.56871 10.42951,8.34515 16.24618,14.17096 5.81395,5.82308 9.40959,9.95798 14.052,16.15948 16.7398,22.36164 27.04175,49.38774 29.37161,77.05337 2.21892,26.34849 -2.36592,52.41416 -13.40035,76.18328 -8.62313,18.575 -20.99034,35.26369 -36.16932,48.80803 -13.62819,12.16055 -29.35628,21.77996 -46.16632,28.23565 -19.55272,7.50899 -40.63429,10.8968 -61.4538,9.87565 z m 16.29751,-46.13247 c 11.32353,-1.06894 22.42052,-3.92495 32.50249,-8.36511 16.32285,-7.18868 30.72084,-18.56684 41.29257,-32.63189 12.00361,-15.97008 19.02115,-34.41139 20.72522,-54.46359 0.31868,-3.75 0.36443,-12.04426 0.0864,-15.66955 -1.27145,-16.58041 -6.16556,-32.112 -14.52592,-46.09838 -3.04188,-5.08887 -6.56204,-9.98914 -10.38868,-14.46163 -2.53706,-2.96526 -8.06299,-8.50772 -10.94962,-10.98238 -17.37284,-14.89344 -38.52864,-23.55172 -61.31802,-25.09518 -3.2389,-0.21936 -10.23111,-0.21969 -13.58575,-6.3e-4 -8.86522,0.57888 -18.51482,2.50449 -26.82534,5.35306 -20.0524,6.87332 -37.45175,19.5819 -50.06141,36.56513 -15.90942,21.42748 -23.00912,48.36148 -19.71701,74.80001 2.27339,18.25738 9.15836,35.273 20.22306,49.97959 10.19125,13.54567 23.66802,24.47873 38.99867,31.63778 11.72318,5.47445 24.62267,8.78932 37.5658,9.65356 3.12299,0.20852 12.85418,0.074 15.97751,-0.22079 z m -14.37751,-5.62493 c -0.396,-0.0334 -1.764,-0.13812 -3.04,-0.23282 -14.24546,-1.05725 -29.32798,-5.84718 -41.8879,-13.30281 -12.72506,-7.55366 -23.56144,-17.78912 -31.682,-29.92509 -18.01398,-26.92145 -21.63681,-60.88008 -9.70278,-90.94894 4.96646,-12.51343 12.29684,-23.65807 21.82522,-33.18169 15.69352,-15.68567 35.64391,-25.40336 57.76746,-28.13811 3.88422,-0.48014 7.03371,-0.65576 11.76,-0.65576 9.17875,0 16.36845,0.93449 25.44,3.30658 22.49542,5.88226 42.96819,20.50683 56.09241,40.06918 3.51456,5.23864 7.45864,12.70244 9.71474,18.38424 6.76762,17.04371 8.66328,35.27093 5.54952,53.36001 -3.07432,17.85996 -11.32475,34.89972 -23.47337,48.48 -3.61548,4.04154 -8.01054,8.21868 -11.93637,11.34453 -15.33226,12.20795 -33.11018,19.3175 -53.06693,21.22193 -1.74984,0.16699 -11.98466,0.33456 -13.36,0.21875 z m 4.59981,-3.67107 c 0.19306,-0.13522 0.4359,-0.54922 0.53966,-0.92 0.34855,-1.24554 0.2102,-40.07714 -0.14154,-39.72541 -0.28822,0.28823 -2.03199,23.66138 -2.43,32.57127 -0.0924,2.068 -0.2044,4.46325 -0.24893,5.32278 -0.11505,2.2206 0.25194,2.98037 1.4454,2.99235 0.26642,0.003 0.64235,-0.10577 0.83541,-0.24099 z m 14.14656,-1.29801 c 0.15806,-0.14303 0.32803,-0.48418 0.37773,-0.7581 0.17426,-0.96052 -2.13317,-16.58392 -4.16039,-28.16962 -1.799,-10.28142 -2.22897,-12.61264 -2.29158,-12.4248 -0.12486,0.37458 1.1494,16.7009 1.96812,25.21639 0.77248,8.03451 1.62684,15.20608 1.87259,15.71859 0.39751,0.82903 1.54236,1.04305 2.23353,0.41754 z m -27.0174,-0.22031 c 0.22666,-0.17829 0.45148,-0.44829 0.4996,-0.6 0.16372,-0.51615 1.51624,-10.21914 2.16013,-15.49671 0.89092,-7.30235 2.59905,-23.47612 2.5556,-24.19821 -0.0383,-0.63688 -3.16608,14.45837 -4.7033,22.6991 -1.15833,6.20962 -2.801,15.92346 -2.801,16.56357 0,0.5843 0.80041,1.35643 1.40611,1.35643 0.25891,0 0.65619,-0.14588 0.88286,-0.32418 z m -12.33221,-2.7104 c 0.21996,-0.17302 0.47836,-0.51502 0.57422,-0.76 0.50218,-1.28331 2.69184,-8.96759 4.84117,-16.98935 1.80291,-6.7288 5.60817,-21.95512 5.53885,-22.16307 -0.16856,-0.50567 -9.3955,26.17669 -12.18886,35.2476 -0.94426,3.06632 -1.03487,3.47664 -0.87479,3.96168 0.30608,0.92742 1.37241,1.28287 2.10941,0.70314 z m 51.6318,-0.0795 c 0.50967,-0.26357 0.65144,-0.53322 0.65144,-1.23905 0,-1.15114 -5.40554,-17.86917 -9.84456,-30.44687 -1.11808,-3.168 -2.14055,-6.06991 -2.27215,-6.44867 -0.76133,-2.19119 -0.0656,1.00661 2.62121,12.04867 2.33486,9.59549 6.25592,24.17206 6.85543,25.4851 0.36084,0.79029 1.15704,1.03084 1.98863,0.60082 z m 10.55955,-3.99327 c 0.22997,-0.24479 0.36389,-0.58586 0.36389,-0.92677 0,-0.9302 -5.62241,-13.59716 -11.27676,-25.40588 -3.03569,-6.33984 -5.55283,-11.48229 -5.55426,-11.34722 -0.001,0.11772 3.01191,8.53245 5.00855,13.98722 3.69546,10.09589 8.87041,23.1055 9.43531,23.72 0.47334,0.5149 1.52724,0.50066 2.02327,-0.0274 z m -71.59795,-2.69265 c 0.62689,-0.55312 5.5705,-11.98368 9.8089,-22.68 2.43086,-6.13471 5.15675,-13.17753 5.11602,-13.21819 -0.0193,-0.0193 -1.40206,2.56895 -3.07282,5.75158 -6.72789,12.81599 -14.16226,28.12891 -14.16226,29.17069 0,1.17477 1.40981,1.77033 2.31016,0.97592 z m 84.31562,-2.85228 c 0.22915,-0.27233 0.41422,-0.69184 0.41422,-0.93894 0,-0.91575 -9.42063,-14.9642 -19.56004,-29.16878 -2.53862,-3.55642 -3.12497,-4.31478 -2.65977,-3.44 0.39767,0.7478 4.65808,8.3429 6.61911,11.8 4.64129,8.18213 12.42601,21.08726 13.18252,21.85335 0.57507,0.58235 1.46451,0.53547 2.00396,-0.10563 z m -95.38469,-1.75911 c 0.20689,-0.0943 0.47644,-0.32826 0.599,-0.52 0.74272,-1.1619 3.68256,-6.30645 5.31938,-9.30861 1.91172,-3.50636 7.49099,-14.54441 7.19773,-14.24 -0.56502,0.58648 -6.90337,9.57955 -9.58534,13.6 -4.11978,6.17581 -5.55504,8.56537 -5.56008,9.25698 -0.008,1.05192 1.0257,1.66891 2.02931,1.21163 z m 102.95891,-5.19736 c 0.39565,-0.4496 0.46005,-1.02279 0.17549,-1.56177 -0.27545,-0.52172 -6.19479,-8.31344 -9.31206,-12.25761 -4.15489,-5.25704 -13.96219,-17.24883 -14.86159,-18.17187 -0.39159,-0.4019 0.55051,1.0649 5.44656,8.48 7.11993,10.78317 16.0719,23.48259 16.83356,23.88038 0.54261,0.2834 1.284,0.1241 1.71804,-0.36913 z m -113.10788,-0.79235 c 0.95935,-0.80724 9.85869,-12.35525 16.02843,-20.7989 2.66762,-3.65081 7.05682,-9.74199 7.66699,-10.64 l 0.3805,-0.56 -0.40075,0.4 c -0.53186,0.53087 -5.51735,6.07535 -9.49535,10.56 -7.65371,8.62851 -16.32046,18.9903 -16.47596,19.69832 -0.11987,0.54573 0.2909,1.38589 0.7724,1.57979 0.60379,0.24316 1.03,0.17624 1.52374,-0.23921 z m 124.46788,-6.36888 c 0.25363,-0.22953 0.36,-0.50637 0.36,-0.9369 0,-0.52758 -0.14954,-0.78069 -1.09423,-1.85211 -1.9197,-2.17721 -14.33697,-14.64431 -20.36355,-20.44526 -8.93838,-8.60373 -8.61934,-8.33321 -5.65572,-4.79575 4.58242,5.46969 9.98433,11.75514 14.16343,16.48 4.32053,4.88475 10.27282,11.39457 10.69867,11.70076 0.5862,0.42149 1.32409,0.36269 1.8914,-0.15074 z M 385.57195,743.561 c 5.84627,-5.99188 14.40261,-15.25342 21.61916,-23.40098 1.44197,-1.628 2.87987,-3.24702 3.19533,-3.59781 0.77707,-0.8641 0.34511,-0.49447 -3.74643,3.20589 -12.55581,11.35539 -25.50488,23.77649 -25.83736,24.78391 -0.32471,0.98387 0.34428,1.84709 1.43296,1.84899 0.52103,9.1e-4 0.77739,-0.21731 3.33634,-2.84 z m -11.60459,-7.38857 c 0.46898,-0.17831 7.17093,-5.81884 13.30946,-11.20158 6.07714,-5.32892 18.64319,-16.72185 18.64319,-16.90274 0,-0.14105 -14.39788,10.65125 -20.16,15.11144 -4.92646,3.81335 -12.13168,9.5761 -12.99858,10.3963 -0.72441,0.68539 -0.92047,1.43759 -0.53003,2.03348 0.4076,0.62208 1.04069,0.82744 1.73596,0.5631 z m 150.68496,-3.36011 c 0.61265,-0.61265 0.62238,-1.28393 0.0277,-1.91185 -0.95126,-1.00442 -14.36367,-9.4861 -26.6,-16.82117 -7.91276,-4.74331 -8.86073,-5.29713 -8.56,-5.0008 0.23743,0.23395 6.59904,4.98273 11.44,8.53966 7.46155,5.48243 18.33823,13.14769 21.51209,15.1605 1.00193,0.6354 1.56972,0.64417 2.18022,0.0337 z m -73.31223,-8.0975 c 3.40303,-0.17676 7.53454,-1.02305 11.25121,-2.30469 18.47444,-6.37064 30.71361,-24.16641 29.99318,-43.61011 -0.35623,-9.61451 -3.56604,-18.41066 -9.54606,-26.16 -1.50752,-1.95355 -5.40486,-5.8509 -7.35841,-7.35841 -9.7469,-7.5215 -21.60854,-10.7781 -33.52,-9.20287 -5.22453,0.69091 -10.99428,2.57689 -15.47374,5.05795 -4.45357,2.46672 -8.41727,5.56709 -11.53598,9.02333 -7.02171,7.78165 -11.04125,17.34259 -11.61063,27.61723 -0.59172,10.67778 2.50484,20.79007 9.05211,29.56108 1.82042,2.43872 5.95121,6.5695 8.38992,8.38992 5.70624,4.25952 11.63507,6.92825 18.37103,8.2693 3.11623,0.6204 6.96638,0.97562 9.28729,0.85684 0.484,-0.0248 1.69904,-0.0876 2.70008,-0.13957 z m 79.74606,-2.63675 c 0.53553,-0.42125 0.68443,-1.1188 0.36902,-1.72874 -0.20247,-0.39154 -1.12217,-0.92432 -5.28504,-3.0616 -2.77195,-1.42315 -7.2202,-3.65454 -9.88501,-4.95863 -7.2299,-3.53813 -22.00442,-10.44449 -21.64122,-10.11621 0.23078,0.2086 4.73187,2.92084 10.71611,6.45725 12.121,7.16295 23.99023,13.72901 24.81842,13.72955 0.27414,1.8e-4 0.68261,-0.14455 0.90772,-0.32162 z m -163.33983,-3.25571 c 7.77806,-3.97114 16.36204,-8.61955 28.33369,-15.34332 3.9055,-2.19349 4.73471,-2.69816 3.92,-2.38579 -0.79817,0.30603 -7.89151,3.40785 -13.52,5.91211 -11.58463,5.1543 -24.19389,11.14269 -24.92,11.835 -0.3104,0.29596 -0.44,0.57875 -0.44,0.96011 0,0.95802 0.47206,1.44435 1.42631,1.4694 0.21246,0.006 2.55246,-1.0958 5.2,-2.44751 z m -4.50373,-12.35059 c 6.40441,-1.93979 15.02675,-4.73525 22.19742,-7.19667 8.39635,-2.88215 12.33851,-4.26991 12.28405,-4.32436 -0.0501,-0.0501 -10.3709,2.37399 -16.61941,3.90345 -9.14462,2.23834 -22.75822,5.93705 -23.54337,6.39656 -1.20825,0.70712 -0.68713,2.58927 0.71691,2.58927 0.24584,0 2.47982,-0.61572 4.9644,-1.36825 z m 174.1405,0.66898 c 0.58961,-0.50716 0.6102,-1.38019 0.0458,-1.94454 -0.44616,-0.44616 -6.63388,-2.34886 -15.82892,-4.86731 -7.88621,-2.15998 -22.01128,-5.78216 -22.46312,-5.76035 -0.34835,0.0168 13.8988,5.25745 21.18312,7.79194 6.78223,2.3598 15.41596,5.13099 16.03108,5.14554 0.40564,0.01 0.72941,-0.105 1.032,-0.36528 z m 3.19987,-12.60229 c 0.26864,-0.25237 0.37705,-0.53022 0.37705,-0.96633 0,-0.73797 -0.37406,-1.16462 -1.23083,-1.4039 -1.41832,-0.39611 -16.71324,-2.50414 -25.64917,-3.5351 -5.62507,-0.64899 -15.85965,-1.75666 -16.07159,-1.73941 -0.46089,0.0375 18.01584,3.90096 25.27159,5.28424 7.699,1.46778 15.82653,2.84694 16.38295,2.78002 0.29861,-0.0359 0.71261,-0.22469 0.92,-0.41952 z m -180.85438,-0.76881 c 7.47085,-1.01956 16.50899,-2.4261 25.15143,-3.91412 10.76144,-1.85286 12.02033,-2.0839 11.70011,-2.14728 -1.07782,-0.21334 -26.6924,2.05339 -37.65951,3.33263 -3.01367,0.35153 -5.59321,0.63914 -5.73231,0.63914 -0.1391,0 -0.46337,0.21046 -0.7206,0.46769 -0.97512,0.97512 -0.37416,2.39231 1.02088,2.40744 0.24672,0.003 3.05472,-0.3508 6.24,-0.7855 z m 37.75143,-6.1956 c -0.11,-0.0444 -0.29,-0.0444 -0.4,0 -0.11,0.0444 -0.02,0.0807 0.2,0.0807 0.22,0 0.31,-0.0363 0.2,-0.0807 z m 143.79982,-5.61428 c 1.06948,-0.53444 1.19284,-1.65233 0.25926,-2.34935 -0.42732,-0.31904 -0.605,-0.32772 -5.82991,-0.28496 -8.49722,0.0695 -23.5603,0.60171 -32.74917,1.15699 -1.408,0.0851 -2.884,0.16103 -3.28,0.16877 -1.51704,0.0296 -0.23141,0.1433 4.32,0.38197 11.61484,0.60906 23.05009,1.02209 30.4,1.09801 1.892,0.0195 4.088,0.0519 4.88,0.0719 1.10588,0.028 1.5699,-0.0285 1.99982,-0.24335 z m -156.71982,-1.3868 c 3.256,-0.13285 7.252,-0.29153 8.88,-0.35263 5.55777,-0.20858 5.13823,-0.26112 -8.19222,-1.02604 -8.12357,-0.46613 -15.78958,-0.7826 -23.14691,-0.95555 -5.87848,-0.13819 -6.67799,-0.12766 -7.14523,0.0941 -0.96984,0.46022 -1.10205,1.65528 -0.25766,2.32898 l 0.42202,0.33671 11.76,-0.092 c 6.468,-0.0506 14.424,-0.20069 17.68,-0.33353 z m 118.48,-7.85639 c 16.03196,-1.32362 33.8766,-3.26698 34.69571,-3.77852 0.37937,-0.23692 0.66429,-0.8048 0.66429,-1.324 0,-0.48955 -0.53543,-1.15311 -1.03077,-1.27743 -0.44753,-0.11232 -7.6562,0.9268 -15.52923,2.23852 -8.47986,1.41283 -24.76055,4.48326 -24,4.52625 0.176,0.01 2.516,-0.16322 5.2,-0.38482 z m -110.08,-0.8988 c -15.50041,-3.10574 -36.57121,-6.70635 -37.84605,-6.46719 -1.29576,0.24309 -1.55433,1.96937 -0.38551,2.57379 0.83442,0.4315 15.98997,2.29563 28.55156,3.51185 14.95571,1.44802 15.01417,1.45033 9.68,0.38155 z M 514.1058,663.2732 c 7.97115,-1.24046 15.12478,-2.55665 20.69421,-3.80751 4.29737,-0.96516 4.32823,-0.97943 4.50748,-2.08398 0.0784,-0.48284 0.0197,-0.63908 -0.39544,-1.05427 -0.30645,-0.30645 -0.65047,-0.48742 -0.92658,-0.48742 -0.57912,0 -6.39435,1.5108 -11.10546,2.88522 -4.70696,1.37321 -15.76324,4.89722 -15.49421,4.93853 0.0582,0.009 1.28219,-0.16682 2.72,-0.39057 z m -132.98579,-0.72923 c -9.1244,-2.56044 -23.22028,-5.77419 -24.22275,-5.52258 -1.05554,0.26492 -1.44109,1.67818 -0.65626,2.40553 0.34341,0.31826 0.9236,0.45571 4.04,0.95711 4.8616,0.78219 9.81361,1.41253 15.71901,2.00087 2.684,0.2674 5.132,0.51267 5.44,0.54504 1.32882,0.13968 1.26079,0.0576 -0.32,-0.38597 z m 19.82667,0.27367 c -0.0367,-0.0343 -1.75867,-0.79893 -3.82667,-1.69917 -16.86048,-7.33963 -34.35036,-14.39845 -35.67551,-14.39845 -1.20984,0 -1.81332,1.46411 -0.95649,2.32054 0.68038,0.68007 14.83898,5.66365 29.272,10.30324 11.85175,3.80983 11.39375,3.6676 11.18667,3.47384 z m 98.97333,-2.10071 c 15.64945,-4.51857 33.91213,-10.41088 34.52,-11.13762 0.30491,-0.36453 0.37102,-1.27026 0.12612,-1.72787 -0.2176,-0.40659 -1.03515,-0.70872 -1.56301,-0.57763 -0.75907,0.18851 -10.14055,3.64282 -14.94314,5.50214 -4.71427,1.82513 -11.93773,4.73317 -18.53997,7.46388 -3.49161,1.44414 -4.39864,1.85477 -3.6,1.62979 0.176,-0.0496 1.976,-0.56829 4,-1.15269 z m -96.168,-4.85341 c -0.0836,-0.0751 -2.06,-1.31045 -4.392,-2.74529 -11.53602,-7.09793 -20.56943,-12.46264 -28.64936,-17.01413 -5.08531,-2.8646 -5.44363,-2.99749 -6.28906,-2.33247 -0.49057,0.38587 -0.57931,1.29199 -0.18208,1.85911 0.30311,0.43276 9.76079,5.51806 18.7205,10.06583 6.07799,3.08506 20.68006,10.29099 20.872,10.30005 0.0396,0.002 0.004,-0.058 -0.08,-0.1331 z m 101.928,-6.42009 c 5.33799,-2.53554 18.61307,-9.17199 21.61868,-10.80757 1.96914,-1.07155 2.30132,-1.39408 2.30132,-2.23445 0,-0.21095 -0.17236,-0.58393 -0.38302,-0.82884 -0.70112,-0.81511 -1.1819,-0.67417 -5.18414,1.51968 -4.64573,2.54659 -12.32585,6.95572 -17.55284,10.07704 -5.81927,3.47499 -13.08997,7.88717 -13.27559,8.05621 -0.17933,0.16331 5.51922,-2.4778 12.47559,-5.78207 z m -6.4,-7.6717 c 5.34007,-4.37911 13.2547,-11.09551 17.6741,-14.99834 2.72873,-2.40977 3.62962,-3.29784 3.74162,-3.68836 0.35434,-1.23552 -0.88624,-2.22655 -2.02624,-1.61866 -1.08944,0.58094 -14.5484,13.33751 -24.34948,23.07875 l -6.56,6.51995 3.76,-3.00657 c 2.068,-1.65362 5.56,-4.48266 7.76,-6.28677 z m -91.76364,6.65115 c -1.79247,-1.7055 -13.84359,-12.24767 -18.865,-16.50287 -5.75128,-4.8737 -11.88832,-9.84979 -12.45271,-10.09703 -0.28988,-0.12699 -0.69946,-0.18368 -0.92253,-0.1277 -0.82196,0.2063 -1.29585,1.36046 -0.87867,2.13997 0.19317,0.36095 6.89865,5.58883 13.36297,10.41835 5.2361,3.91191 19.84734,14.48815 20.07594,14.53183 0.042,0.008 -0.102,-0.15512 -0.32,-0.36255 z m 89.60522,-20.26287 c 7.07248,-7.20565 14.09545,-14.6409 14.58385,-15.44 0.41476,-0.67859 0.36623,-1.15295 -0.17312,-1.6923 -0.54152,-0.54153 -1.15829,-0.60553 -1.80051,-0.18685 -0.23551,0.15353 -1.99951,2.04341 -3.92,4.19972 -6.8128,7.64935 -13.13183,15.10725 -22.43584,26.47943 -1.54258,1.88548 5.50888,-4.96816 13.74562,-13.36 z m -87.06422,10.92 c -10.10131,-13.29742 -21.12907,-27.16758 -22.92349,-28.832 -1.27398,-1.18168 -3.05471,0.47369 -2.06154,1.9164 0.49415,0.7178 5.85652,6.88267 9.73826,11.1956 5.11348,5.68151 17.27423,18.72 17.45979,18.72 0.0362,0 -0.95961,-1.35 -2.21302,-3 z m 10.48265,-1.36 c -0.59923,-1.00817 -6.15914,-9.85802 -8.2175,-13.08 -5.69135,-8.90875 -13.78369,-20.97731 -14.7785,-22.04 -0.9975,-1.06556 -2.64249,-0.4383 -2.45799,0.93727 0.16449,1.22634 10.06481,14.65058 23.31994,31.62044 1.97142,2.5239 2.45966,3.11012 2.13405,2.56229 z m 57.73544,-4.32 c 4.89051,-6.86011 8.13288,-11.49691 11.66379,-16.68 3.11042,-4.56584 9.01101,-13.52418 9.39888,-14.26948 0.78435,-1.50712 -0.96768,-2.85448 -2.19825,-1.69052 -1.04097,0.98462 -11.69049,18.6625 -18.81963,31.24 -0.77313,1.364 -1.82441,3.218 -2.33616,4.12 -0.51176,0.902 -0.9049,1.64 -0.87365,1.64 0.0312,0 1.45551,-1.962 3.16502,-4.36 z m -6.84824,-4.6 c 3.86513,-7.35226 10.44498,-20.46582 13.35829,-26.6229 2.70051,-5.70736 2.7829,-5.99866 1.90538,-6.73705 -0.59772,-0.50294 -1.26687,-0.45802 -1.8443,0.12383 -0.60102,0.60561 -6.54314,14.15535 -10.92675,24.91612 -2.69671,6.6198 -5.60045,13.90706 -5.59496,14.04115 0.007,0.16816 -0.0125,0.20382 3.10234,-5.72115 z m -43.88536,4.36 c -0.0822,-0.154 -1.08368,-2.332 -2.22556,-4.84 -5.24113,-11.51139 -9.84226,-21.14224 -13.58098,-28.42699 -2.22288,-4.33118 -2.53312,-4.85347 -3.02032,-5.08466 -0.4856,-0.23043 -0.6029,-0.23262 -1.11,-0.0207 -0.63832,0.26671 -0.9584,0.88076 -0.82035,1.57382 0.16046,0.80557 7.48772,14.26719 12.30058,22.59857 3.48802,6.03802 8.46339,14.48 8.53393,14.48 0.0397,0 0.005,-0.126 -0.0773,-0.28 z m 38.3213,-11.96 c 5.28969,-14.03419 10.57822,-29.35141 10.37048,-30.0361 -0.32942,-1.08574 -1.57791,-1.45598 -2.33999,-0.6939 -0.76898,0.76898 -6.00901,18.32786 -10.86569,36.41 -0.69726,2.596 -1.26495,4.792 -1.26153,4.88 0.008,0.2159 0.94859,-2.2076 4.09673,-10.56 z m -33.06434,5.73537 c -3.75282,-14.55423 -9.47202,-34.58473 -10.18584,-35.67416 -0.3026,-0.46183 -1.02088,-0.74548 -1.5509,-0.61245 -0.53313,0.13381 -1.06207,0.78704 -1.06207,1.31163 0,0.95788 5.02567,15.66975 9.33255,27.31961 3.5176,9.51489 4.31301,11.60778 4.38445,11.53633 0.0361,-0.0361 -0.3771,-1.78251 -0.91819,-3.88096 z m 22.24781,-0.21537 c 3.76561,-16.69943 7.65976,-36.36208 7.43731,-37.55306 -0.11476,-0.61443 -0.76054,-1.16694 -1.36393,-1.16694 -0.4858,0 -1.21402,0.49921 -1.34813,0.92418 -0.16827,0.53317 -1.83721,11.21275 -2.55599,16.35582 -1.00868,7.21742 -3.15943,24.53378 -3.12325,25.14622 0.022,0.37161 0.12289,-0.0205 0.95399,-3.70622 z m -14.63876,-1.2615 c -0.51913,-6.80371 -1.3762,-16.821 -1.84966,-21.6185 -0.49242,-4.98959 -1.69067,-15.57143 -1.85207,-16.35567 -0.10513,-0.51087 -0.91203,-1.24433 -1.36892,-1.24433 -0.85452,0 -1.40526,0.62407 -1.41201,1.6 -0.007,0.97704 1.22939,9.79865 2.39897,17.12 1.55118,9.71013 4.20251,24.68304 4.2917,24.23663 0.0307,-0.1538 -0.0629,-1.83596 -0.20801,-3.73813 z m 7.74796,-0.6585 c 0.73753,-15.0008 1.12003,-26.33018 1.1225,-33.24794 0.002,-5.63782 -0.0384,-5.79206 -1.51718,-5.79206 -0.40433,0 -0.63842,0.12531 -0.97142,0.52 l -0.43872,0.52 0.10798,7.04 c 0.14829,9.66818 0.34888,15.40532 1.06572,30.48 0.16782,3.52917 0.32954,5.19133 0.42032,4.32 0.0229,-0.22 0.11778,-1.948 0.2108,-3.84 z M 218.64001,819.19513 c -2.38267,-0.37218 -4.34298,-1.86636 -5.41368,-4.12637 -0.47342,-0.99929 -0.50633,-1.18365 -0.50633,-2.83704 0,-1.7182 0.0169,-1.8024 0.59495,-2.97209 2.6806,-5.42381 10.03426,-5.45468 12.70376,-0.0533 0.67254,1.3608 0.8814,3.11843 0.54322,4.57132 -0.63832,2.74234 -3.01806,4.96593 -5.79737,5.41695 -0.55251,0.0897 -1.07655,0.15458 -1.16455,0.14427 -0.088,-0.0103 -0.52,-0.075 -0.96,-0.14372 z m 456.12203,-0.0774 c -4.46518,-0.9701 -6.84864,-5.75441 -4.94176,-9.91958 0.53506,-1.16873 2.12727,-2.76345 3.31959,-3.32481 4.70706,-2.21616 10.06015,1.13476 10.06015,6.29744 0,3.57642 -2.42609,6.4512 -5.92311,7.01856 -1.24547,0.20207 -1.25663,0.20175 -2.51487,-0.0716 z M 228.79856,802.95852 c -0.83148,-0.85786 -2.78259,-2.14925 -4.05488,-2.68381 -0.6228,-0.26167 -1.74692,-0.60044 -2.49802,-0.75281 l -1.36565,-0.27703 0.049,-2.06243 c 0.0269,-1.13433 0.65695,-25.28079 1.4,-53.65879 0.74306,-28.378 1.35102,-52.03638 1.35102,-52.57416 v -0.97779 l 2.76,-2.16057 c 31.80346,-24.89621 57.60785,-53.54415 76.83072,-85.29718 l 1.72279,-2.84577 0.50324,0.29232 c 0.27679,0.16078 1.74228,1.00492 3.25664,1.87587 l 2.7534,1.58354 -0.88554,1.61005 c -1.47886,2.68878 -4.90945,9.7421 -6.34729,13.05005 -6.455,14.85064 -10.73587,31.70991 -12.18806,48.00001 -0.6552,7.34978 -0.73487,19.10539 -0.17622,26 1.74981,21.59503 7.84153,42.56504 17.79861,61.26959 l 1.53194,2.87778 -0.35564,0.24631 c -0.1956,0.13548 -6.98681,4.06961 -15.09158,8.74253 l -14.73595,8.49621 -0.85747,-0.69842 c -5.1608,-4.20353 -13.13769,-2.49194 -16.28314,3.49386 -1.03815,1.97561 -1.46898,4.81402 -1.05495,6.95035 l 0.12756,0.6582 -14.01268,8.0618 c -7.70697,4.43398 -15.20151,8.77168 -16.65453,9.63934 -1.45302,0.86765 -2.71612,1.60731 -2.80688,1.64369 -0.0908,0.0364 -0.41316,-0.18985 -0.71642,-0.50274 z m 436.08146,-0.35456 c -0.792,-0.49076 -8.244,-4.81198 -16.56,-9.60272 -8.31601,-4.79074 -15.14538,-8.73524 -15.1764,-8.76556 -0.031,-0.0303 0.0234,-0.65461 0.1209,-1.38734 0.42855,-3.22035 -0.65108,-6.46403 -2.94451,-8.84659 -1.18761,-1.23378 -2.45476,-2.05493 -4.14278,-2.68464 -1.08823,-0.40596 -1.59365,-0.49555 -3.13722,-0.55611 -2.87705,-0.11288 -4.88813,0.50234 -7.07897,2.16553 l -1.07897,0.81911 -13.64103,-7.84883 c -11.16877,-6.42633 -16.49449,-9.52354 -16.88723,-9.82088 -0.0254,-0.0192 0.60786,-1.25879 1.40726,-2.75456 3.95512,-7.40046 7.78368,-16.43294 10.52941,-24.84135 10.36083,-31.72867 10.24098,-66.35853 -0.33862,-97.84001 -1.57758,-4.69438 -3.06635,-8.6181 -4.70489,-12.4 -1.37425,-3.17191 -5.25487,-11.15292 -6.42392,-13.21167 l -0.64261,-1.13166 3.29078,-1.88162 c 2.6905,-1.53839 3.32605,-1.84272 3.48409,-1.66834 0.10632,0.11731 0.86644,1.32929 1.68914,2.69329 17.56534,29.12225 41.69127,56.57581 70.31557,80.01402 2.22181,1.81926 8.4821,6.78385 9.15963,7.26384 0.0218,0.0154 0.64754,23.27824 1.39055,51.69511 0.743,28.41687 1.39648,52.92796 1.45218,54.46909 l 0.10126,2.80205 -1.21157,0.19277 c -2.18942,0.34835 -4.39485,1.42685 -6.33839,3.09961 -0.60294,0.51893 -1.11818,0.93817 -1.14496,0.93163 -0.0268,-0.007 -0.6967,-0.41342 -1.4887,-0.90417 z M 214.16,796.11424 c -2.62629,-3.41481 -8.49153,-9.5624 -12.56,-13.16463 -18.2341,-16.14453 -42.87105,-28.22011 -73.6,-36.07439 -1.76742,-0.45175 -2.68217,-0.7952 -2.11792,-0.7952 0.10234,0 2.83474,-1.17811 6.072,-2.61803 31.51941,-14.01964 59.46015,-29.8963 83.93066,-47.69159 0.9486,-0.68984 1.74442,-1.22638 1.76849,-1.19232 0.0241,0.0341 -0.54921,22.30994 -1.27394,49.50194 -0.72473,27.192 -1.32255,50.214 -1.32849,51.16 -0.006,0.946 -0.0648,1.71693 -0.1308,1.71318 -0.066,-0.004 -0.408,-0.38128 -0.76,-0.83896 z m 466.74174,0.50466 c -0.10836,-0.55594 -2.70555,-101.42839 -2.61386,-101.52008 0.0428,-0.0428 1.36349,0.84895 2.93495,1.9816 23.74321,17.11321 50.5235,32.35131 80.67221,45.90283 2.25774,1.01482 4.87898,2.17361 5.82498,2.57506 0.946,0.40146 1.72,0.77347 1.72,0.82668 0,0.0532 -0.954,0.33818 -2.12,0.63325 -5.02125,1.27071 -12.5609,3.51982 -17.81116,5.31314 -29.47508,10.06777 -51.87045,24.41162 -67.18157,43.02864 -0.68755,0.836 -1.27295,1.54649 -1.30089,1.57888 -0.0279,0.0324 -0.084,-0.11162 -0.12466,-0.32 z m 84.05828,-58.75332 c -13.80253,-6.2027 -27.2863,-12.94007 -39.36,-19.66684 -14.91588,-8.31026 -29.42554,-17.55575 -42.48,-27.06808 -4.82671,-3.51705 -5.03411,-3.68002 -5.10424,-4.01064 -0.0373,-0.176 -0.68681,-24.476 -1.44327,-54.00001 -0.75646,-29.524 -1.41762,-54.472 -1.46923,-55.44 -0.0823,-1.54397 -0.0652,-1.73054 0.13947,-1.52 0.12832,0.132 9.26979,15.9 20.31436,35.04 20.96297,36.32837 72.88996,126.28554 73.81761,127.88001 0.29439,0.506 0.48351,0.917 0.42027,0.91334 -0.0632,-0.004 -2.23897,-0.96116 -4.83497,-2.12778 z m -638.38796,1.14958 c 0.10974,-0.20633 11.60979,-20.13914 25.55568,-44.29514 13.94588,-24.156 35.03866,-60.69601 46.87283,-81.20001 11.83417,-20.504 21.5886,-37.352 21.67651,-37.44 0.10646,-0.10656 0.12654,0.80187 0.0601,2.72 -0.0548,1.584 -0.71478,26.532 -1.46654,55.44 l -1.36684,52.56001 -0.4786,0.41723 c -0.26324,0.22948 -1.9336,1.48501 -3.71192,2.79008 -24.02349,17.63019 -51.47187,33.3685 -82.5373,47.32509 -2.23081,1.00223 -4.2242,1.87525 -4.42975,1.94005 -0.35089,0.11063 -0.36154,0.0949 -0.17421,-0.25731 z m 543.26796,-58.00715 c -28.93437,-23.23678 -52.4381,-49.36416 -70.42652,-78.288 -3.16084,-5.08236 -3.40848,-5.50675 -3.2842,-5.62811 0.0978,-0.0955 22.12306,-12.74986 23.0285,-13.23075 0.31906,-0.16946 0.46802,-0.10339 1.37637,0.61046 6.67587,5.24636 16.45467,1.97202 18.61059,-6.2316 0.29828,-1.13497 0.38136,-3.70645 0.1634,-5.05705 l -0.13186,-0.81706 12.75161,-7.30985 c 7.01339,-4.02043 12.76905,-7.28875 12.79035,-7.26295 0.0213,0.0258 0.96297,1.65705 2.09258,3.62499 l 2.05384,3.57807 1.46948,56.02193 c 0.80821,30.81206 1.50747,57.26393 1.55393,58.78193 0.0464,1.518 0.0366,2.75773 -0.0218,2.75496 -0.0584,-0.003 -0.97026,-0.69891 -2.02626,-1.54697 z m -445.83786,-0.32799 c 0.001,-0.77 0.68064,-27.11372 1.5099,-58.5416 l 1.50774,-57.1416 2.17681,-3.76473 2.1768,-3.76472 9.6333,5.52553 c 5.29831,3.03904 10.98441,6.29088 12.63578,7.22632 l 3.00248,1.70079 -0.12248,0.8 c -0.21759,1.42118 -0.12748,4.08419 0.17324,5.12 0.69678,2.40005 1.70326,4.07918 3.3884,5.65291 3.61536,3.37635 8.92914,4.08041 13.36775,1.77119 0.70406,-0.3663 1.62677,-0.97766 2.05045,-1.35859 l 0.77034,-0.6926 11.74367,6.73044 c 6.45902,3.70174 11.76063,6.7458 11.78136,6.76457 0.0513,0.0464 -3.45022,5.81612 -4.91093,8.09208 -9.60001,14.95798 -19.71981,28.06612 -32.2367,41.75609 -3.53584,3.86721 -14.35655,14.67966 -18.33006,18.31606 -4.30857,3.94304 -8.74621,7.82817 -12.72,11.13631 -4.02846,3.35364 -7.39122,6.07155 -7.5121,6.07155 -0.0483,0 -0.0869,-0.63 -0.0857,-1.4 z m 356.54563,-82.94973 c -3.53662,-5.87781 -9.6204,-14.1509 -14.68553,-19.97028 -12.15747,-13.96783 -25.67351,-24.94638 -42.26225,-34.32793 -2.69467,-1.52393 -8.87862,-4.59629 -12.48,-6.20041 -18.07089,-8.04909 -37.94946,-12.63358 -57.81491,-13.33354 l -3.0949,-0.10905 0.0949,-0.47453 c 0.0522,-0.261 0.0949,-7.44076 0.0949,-15.95503 v -15.48049 l 0.9394,-0.35132 c 2.66745,-0.99756 5.04249,-3.39071 6.12066,-6.16735 1.62866,-4.19433 0.52606,-8.81886 -2.83746,-11.90092 -0.97864,-0.89674 -2.9157,-2.04771 -3.86332,-2.29552 l -0.35928,-0.094 2.2e-4,-20.37498 2.2e-4,-20.37498 0.99978,-0.29113 c 2.31369,-0.67374 4.78553,-2.25333 6.14155,-3.92467 0.40349,-0.49731 0.77965,-0.9198 0.83592,-0.93887 0.0563,-0.0191 20.80229,12.65704 46.10226,28.16912 l 45.99995,28.20379 0.11737,0.79088 c 1.24201,8.36932 2.07862,13.33131 3.26262,19.35088 4.96805,25.25795 12.54921,48.96499 22.79429,71.28 2.92106,6.36242 7.84561,16.05988 10.50576,20.68803 0.39453,0.68642 0.69095,1.27356 0.6587,1.30475 -0.0963,0.0931 -6.27987,3.64077 -6.47926,3.71728 -0.10105,0.0388 -0.45726,-0.38413 -0.7916,-0.93978 z m -269.24705,-1.24693 c -1.6606,-0.95584 -3.07971,-1.79832 -3.15358,-1.87219 -0.0739,-0.0739 0.48003,-1.2496 1.23088,-2.61273 17.66856,-32.07662 29.21357,-66.75599 35.23083,-105.82786 l 0.75114,-4.87735 45.83061,-28.08661 c 25.20684,-15.44763 45.87084,-28.08162 45.92,-28.07553 0.0492,0.006 0.42819,0.43142 0.84227,0.94517 1.2931,1.60433 4.00762,3.40732 5.81522,3.86248 l 0.7119,0.17926 v 20.43957 20.43956 l -0.95878,0.34959 c -2.83004,1.03189 -5.30861,3.59952 -6.34138,6.56926 -1.37503,3.95389 -0.4039,8.13805 2.58702,11.14626 1.06927,1.07546 1.55883,1.4307 2.81132,2.04 0.83412,0.40577 1.60326,0.73777 1.7092,0.73777 0.14883,0 0.19312,3.55541 0.19481,15.64 0.001,8.602 0.0428,15.79119 0.0924,15.97597 0.0883,0.32888 0.0316,0.3383 -2.68218,0.44604 -6.82784,0.27105 -13.03661,0.90535 -19.82661,2.02553 -27.26,4.49722 -53.13997,16.36065 -74.42783,34.11786 -7.07366,5.90048 -14.84827,13.73149 -20.68454,20.8346 -3.62371,4.41029 -8.94226,11.80233 -11.71342,16.28 -0.36762,0.594 -0.725,1.07578 -0.79419,1.07062 -0.0692,-0.005 -1.48446,-0.79144 -3.14506,-1.74727 z m 280.05022,-7.49125 c -2.18724,-3.95309 -6.77054,-13.00958 -8.76128,-17.3121 -10.65472,-23.02769 -18.2133,-46.69717 -23.23118,-72.74786 -0.81418,-4.22682 -2.26649,-12.84372 -2.20593,-13.08825 0.0263,-0.10629 22.44472,13.53964 50.36744,30.65834 27.676,16.96744 50.57201,30.9527 50.88001,31.07836 0.48003,0.19585 0.74849,0.55742 1.88,2.53204 0.726,1.26696 1.31688,2.37192 1.31308,2.45547 -0.004,0.0835 -5.70189,3.40992 -12.66242,7.39195 l -12.6555,7.24005 -0.97758,-0.80097 c -1.20734,-0.98922 -2.68391,-1.77376 -4.25759,-2.26217 -1.72113,-0.53417 -4.67887,-0.53417 -6.4,0 -4.01087,1.24483 -6.75761,3.99246 -8.02447,8.02708 -0.32354,1.03039 -0.37119,1.48392 -0.34424,3.27596 0.0172,1.144 0.0532,2.32146 0.08,2.61657 l 0.0487,0.53657 -11.28,6.47436 c -6.204,3.5609 -11.46754,6.57389 -11.69676,6.69553 l -0.41676,0.22116 z m -300.35664,-4.15626 -11.64569,-6.67584 0.12569,-0.8 c 0.0691,-0.44 0.11813,-1.664 0.1089,-2.72 -0.0141,-1.60928 -0.0846,-2.12714 -0.4359,-3.2 -0.60956,-1.86159 -1.4425,-3.17995 -2.98482,-4.72428 -2.31038,-2.31341 -4.83805,-3.35572 -8.13787,-3.35572 -3.03705,0 -5.76778,1.02854 -7.86462,2.96224 l -0.56,0.51643 -12.59502,-7.21934 c -6.92725,-3.97063 -12.59726,-7.26512 -12.6,-7.3211 -0.003,-0.056 0.59636,-1.13597 1.33134,-2.4 1.14791,-1.9742 1.43246,-2.35209 2.0182,-2.68025 0.37503,-0.21012 23.22016,-14.19765 50.76695,-31.0834 27.54679,-16.88575 50.11359,-30.67285 50.14845,-30.63799 0.1457,0.1457 -1.79817,11.31152 -2.92881,16.82341 -5.72832,27.9256 -14.45784,53.33593 -26.54895,77.28 -2.94017,5.82244 -6.16229,11.7927 -6.40432,11.86656 -0.0813,0.0248 -5.3884,-2.959 -11.79353,-6.63072 z m 335.48569,-3.85893 c -1.02382,-0.27534 -1.7168,-0.67359 -2.56053,-1.47156 -3.00283,-2.83995 -2.18915,-7.60704 1.60053,-9.37698 0.81511,-0.38069 1.16527,-0.44837 2.32,-0.44837 1.13833,0 1.50801,0.0694 2.26803,0.42567 1.2711,0.59587 2.27552,1.57914 2.89173,2.83085 0.463,0.94048 0.51977,1.20464 0.51999,2.41961 2.2e-4,1.15936 -0.0675,1.51047 -0.45157,2.34154 -0.911,1.97122 -2.83837,3.27229 -4.97942,3.36136 -0.62082,0.0258 -1.34476,-0.0111 -1.60876,-0.0821 z m -359.6,-0.4033 c -2.17709,-0.47175 -3.68359,-1.84915 -4.34429,-3.97199 -0.84919,-2.72846 0.35568,-5.42592 3.06429,-6.86033 0.62654,-0.33179 0.93806,-0.38129 2.4,-0.38129 1.60712,0 1.7235,0.0236 2.68293,0.54386 1.81655,0.98505 2.89543,2.63656 3.03971,4.65308 0.27052,3.78082 -3.1759,6.81122 -6.84264,6.01667 z m 337.51896,-72.92923 c -26.57542,-16.28607 -48.34003,-29.62762 -48.3658,-29.64788 -0.0796,-0.0626 -0.79095,-6.02871 -1.22057,-10.2365 -0.73913,-7.23928 -1.27615,-14.61694 -1.72948,-23.76 -0.27542,-5.55505 -0.27419,-30.41868 0.002,-36.24 0.6063,-12.78816 1.44925,-23.9057 2.6386,-34.8 l 0.35808,-3.28 0.34121,0.56 c 0.18767,0.308 17.00748,29.432 37.37736,64.72 20.36988,35.288 41.97903,72.72095 48.02033,83.18434 6.04129,10.46338 10.96466,19.04385 10.9408,19.06771 -0.0239,0.0239 -21.7869,-13.2816 -48.36233,-29.56767 z m -360.82452,28.72645 c 0.12861,-0.24796 15.11593,-26.22683 33.30515,-57.73083 18.18921,-31.504 39.77835,-68.89723 47.97585,-83.09606 l 14.90456,-25.81605 0.11414,0.69605 c 0.20948,1.27743 1.22804,11.83244 1.63434,16.93606 1.11838,14.0485 1.52912,24.33827 1.52962,38.32 4.2e-4,11.89335 -0.2903,20.44366 -1.0418,30.64 -0.62047,8.41865 -1.97132,21.17145 -2.27223,21.45121 -0.13916,0.12938 -95.45494,58.55349 -96.0218,58.85687 -0.35612,0.19059 -0.35809,0.18663 -0.12783,-0.25725 z M 506.36291,447.552 c -23.64841,-14.49359 -42.99841,-26.39769 -43,-26.45355 -0.002,-0.0559 0.4111,-0.15228 0.9171,-0.21425 1.47474,-0.18063 6.48053,-1.17532 9,-1.78837 24.67306,-6.00363 49.45853,-21.0967 73.24,-44.59935 1.87,-1.84807 3.39997,-3.25581 3.39994,-3.1283 -3e-5,0.1275 -0.17608,1.88783 -0.39121,3.91183 -1.01665,9.56501 -1.81179,20.4954 -2.36277,32.48 -0.27955,6.08075 -0.27898,30.66278 8.4e-4,36.4 0.49861,10.22269 1.07806,17.94198 1.96652,26.1973 0.18215,1.69251 0.30767,3.18291 0.27894,3.31199 -0.0361,0.16194 -13.38118,-7.93431 -43.04936,-26.1173 z m -160.04944,25.85573 c 0.21088,-0.92941 1.195,-11.24077 1.60033,-16.76772 1.22912,-16.76014 1.40281,-36.59892 0.47978,-54.8 -0.41787,-8.23985 -1.11326,-17.44937 -1.91457,-25.35584 -0.20936,-2.06572 -0.35061,-3.78588 -0.31391,-3.82259 0.0367,-0.0367 0.91766,0.75342 1.95766,1.75584 1.04001,1.00243 3.02796,2.84972 4.41768,4.10509 21.53691,19.45503 42.39286,32.11019 63.77957,38.70076 4.56236,1.40595 10.57348,2.82744 14.48,3.42418 0.704,0.10754 1.33334,0.24281 1.39854,0.30059 0.0889,0.0788 -83.60557,51.53362 -85.58914,52.61969 -0.35482,0.19428 -0.37397,0.18392 -0.29594,-0.16 z m 99.41417,-49.07665 c -1.29598,-0.41438 -2.16641,-0.96739 -3.1356,-1.99217 -3.28282,-3.4711 -2.18478,-9.02795 2.1975,-11.12081 1.16363,-0.55572 1.27857,-0.57809 2.97047,-0.57809 1.64986,0 1.82796,0.0322 2.84602,0.51441 4.48032,2.12218 5.57491,7.73579 2.20348,11.30058 -1.79835,1.90149 -4.64438,2.65544 -7.08187,1.87608 z m -14.0696,-9.53809 c -8.97273,-1.51664 -18.32127,-4.37953 -27.46951,-8.41224 -2.78101,-1.22593 -8.77309,-4.22297 -11.44453,-5.7242 -12.48828,-7.01781 -24.53063,-15.87569 -36.90399,-27.14514 -2.80366,-2.55352 -10.4,-9.95752 -10.4,-10.13666 0,-0.25093 8.78282,-5.04054 14.4,-7.85285 24.23356,-12.13287 48.54529,-19.0961 73.44,-21.0343 2.58129,-0.20096 9.65775,-0.56587 11,-0.56723 l 0.36,-3.6e-4 v 35.50714 35.50714 l -0.84,0.27274 c -4.08788,1.32729 -7.47587,4.84763 -8.53938,8.87298 -0.15113,0.572 -0.31659,1.08591 -0.3677,1.14203 -0.0511,0.0561 -1.50681,-0.13696 -3.23489,-0.42905 z m 28.67555,-0.35298 c -0.27796,-1.29579 -1.60349,-3.93729 -2.56724,-5.11599 -0.4479,-0.54779 -1.26256,-1.36224 -1.81035,-1.80989 -1.09097,-0.89153 -3.44003,-2.11005 -4.63599,-2.4048 l -0.76,-0.18731 v -35.51449 -35.51449 l 1.72,0.0911 c 0.946,0.0501 2.692,0.13162 3.88,0.18115 3,0.12507 7.8602,0.50563 11.28,0.88323 22.36438,2.46941 44.47434,8.83098 67.84,19.51923 3.16088,1.44589 14.09582,6.93348 14.63278,7.34331 l 0.39277,0.29978 -2.95277,3.0772 c -5.61982,5.85663 -12.79701,12.5485 -19.03099,17.74413 -21.1907,17.66114 -42.61456,28.32156 -63.99173,31.84204 -4.00277,0.65919 -3.7562,0.68598 -3.99648,-0.43419 z M 348.65157,354.37237 c 0.46594,-0.88495 95.88658,-166.14723 96.01078,-166.28437 0.0769,-0.0849 0.13766,12.84363 0.13766,29.30715 v 29.45914 l -0.84,0.27498 c -4.44116,1.45386 -7.87081,5.3951 -8.69391,9.99074 -0.66412,3.70801 0.24171,7.3612 2.58039,10.40663 1.36596,1.77876 3.56724,3.363 5.70131,4.1032 l 1.29788,0.45017 -0.10263,10.88 c -0.0564,5.984 -0.10272,18.55851 -0.10283,27.94336 l -2.1e-4,17.06337 -2.36,0.0992 c -10.15004,0.42674 -16.93644,1.06685 -24.84,2.34296 -17.18291,2.77436 -33.66981,7.74927 -50.88,15.35301 -3.24366,1.4331 -12.18937,5.82214 -15.81225,7.75797 -1.88097,1.00507 -2.25706,1.15802 -2.09619,0.85247 z m 196.70844,-1.52571 c -0.616,-0.31768 -2.74,-1.34808 -4.72,-2.28978 -26.71959,-12.70799 -53.01706,-20.02411 -79.04,-21.98943 -2.46144,-0.18589 -9.73395,-0.56352 -10.92118,-0.56708 -0.1101,-3.3e-4 -0.1087,-30.61808 0.002,-48.48988 l 0.0452,-7.28952 1.15686,-0.37047 c 4.56633,-1.46232 7.86238,-5.11654 8.86424,-9.8275 0.34496,-1.62205 0.21233,-4.75021 -0.26553,-6.26299 -1.32772,-4.20316 -4.4225,-7.33064 -8.56185,-8.65232 l -1.12,-0.35761 -0.0404,-29.72746 c -0.023,-16.93173 0.0197,-29.66185 0.0992,-29.57504 0.0768,0.0838 3.91857,6.70442 8.5373,14.71242 15.65131,27.1364 86.71824,150.23669 87.03514,150.76001 0.17319,0.286 0.25502,0.51646 0.18184,0.51213 -0.0732,-0.004 -0.63705,-0.26779 -1.25305,-0.58548 z m -98.77179,-86.45785 c -1.78167,-0.35062 -3.84082,-1.87001 -4.71763,-3.48099 -1.93972,-3.5639 -0.58182,-7.96563 2.99493,-9.7083 3.69127,-1.79847 7.83353,-0.32458 9.58067,3.40898 0.67629,1.4452 0.78997,3.32833 0.29859,4.9461 -1.04289,3.43348 -4.59038,5.536 -8.15656,4.83421 z"
       id="path1" />
  </g>
</svg>
