ISO-10303-21;
HEADER;
/* Generated by software containing ST-Developer
 * from STEP Tools, Inc. (www.steptools.com) 
 */

FILE_DESCRIPTION(
/* description */ (''),
/* implementation_level */ '2;1');

FILE_NAME(
/* name */ 'triangle bracket - 3 way.step',
/* time_stamp */ '2026-08-04T20:46:21+09:00',
/* author */ (''),
/* organization */ (''),
/* preprocessor_version */ 'ST-DEVELOPER v20.1',
/* originating_system */ 'Autodesk Translation Framework v15.8.0.0',
/* authorisation */ '');

FILE_SCHEMA (('AUTOMOTIVE_DESIGN { 1 0 10303 214 3 1 1 }'));
ENDSEC;

DATA;
#10=MECHANICAL_DESIGN_GEOMETRIC_PRESENTATION_REPRESENTATION('',(#13),#1290);
#11=SHAPE_REPRESENTATION_RELATIONSHIP('SRR','None',#1297,#12);
#12=ADVANCED_BREP_SHAPE_REPRESENTATION('',(#14),#1289);
#13=STYLED_ITEM('',(#1306),#14);
#14=MANIFOLD_SOLID_BREP('Bracket_3way',#683);
#15=SPHERICAL_SURFACE('',#762,0.5);
#16=SPHERICAL_SURFACE('',#766,0.5);
#17=SPHERICAL_SURFACE('',#773,0.5);
#18=SPHERICAL_SURFACE('',#779,0.499999999999992);
#19=FACE_BOUND('',#105,.T.);
#20=FACE_BOUND('',#106,.T.);
#21=FACE_BOUND('',#107,.T.);
#22=FACE_BOUND('',#110,.T.);
#23=FACE_BOUND('',#111,.T.);
#24=FACE_BOUND('',#112,.T.);
#25=TOROIDAL_SURFACE('',#709,2.3,0.5);
#26=TOROIDAL_SURFACE('',#720,2.3,0.5);
#27=TOROIDAL_SURFACE('',#727,2.3,0.5);
#28=TOROIDAL_SURFACE('',#733,2.3,0.5);
#29=TOROIDAL_SURFACE('',#735,2.3,0.5);
#30=TOROIDAL_SURFACE('',#741,2.3,0.5);
#31=TOROIDAL_SURFACE('',#771,33.5,0.5);
#32=TOROIDAL_SURFACE('',#784,33.5,0.5);
#33=PLANE('',#702);
#34=PLANE('',#708);
#35=PLANE('',#716);
#36=PLANE('',#723);
#37=PLANE('',#746);
#38=PLANE('',#747);
#39=PLANE('',#761);
#40=PLANE('',#788);
#41=PLANE('',#789);
#42=PLANE('',#790);
#43=ELLIPSE('',#700,0.763762615825971,0.5);
#44=ELLIPSE('',#701,1.15470053837925,1.);
#45=ELLIPSE('',#704,0.763762615825971,0.5);
#46=ELLIPSE('',#705,1.15470053837925,1.);
#47=ELLIPSE('',#745,0.577350269189626,0.5);
#48=ELLIPSE('',#752,1.,0.5);
#49=ELLIPSE('',#756,1.,0.5);
#50=ELLIPSE('',#759,0.577350269189626,0.5);
#51=B_SPLINE_CURVE_WITH_KNOTS('',3,(#1059,#1060,#1061,#1062,#1063,#1064,
#1065,#1066,#1067,#1068),.UNSPECIFIED.,.F.,.F.,(4,2,2,2,4),(0.,0.0184607309575586,
0.0430261680037037,0.0786199598210736,0.0790941285018428),.UNSPECIFIED.);
#52=B_SPLINE_CURVE_WITH_KNOTS('',3,(#1108,#1109,#1110,#1111,#1112,#1113,
#1114,#1115,#1116,#1117),.UNSPECIFIED.,.F.,.F.,(4,2,2,2,4),(-0.000338585390497866,
0.,0.0238940998058906,0.0480237282871178,0.0745447119398418),
 .UNSPECIFIED.);
#53=B_SPLINE_SURFACE_WITH_KNOTS('',3,3,((#1032,#1033,#1034,#1035,#1036),
(#1037,#1038,#1039,#1040,#1041),(#1042,#1043,#1044,#1045,#1046),(#1047,
#1048,#1049,#1050,#1051),(#1052,#1053,#1054,#1055,#1056)),.UNSPECIFIED.,
 .F.,.F.,.F.,(4,1,4),(4,1,4),(0.,0.5,1.),(-1.57079632679491,-0.897597901025665,
2.22044604925031E-16),.UNSPECIFIED.);
#54=B_SPLINE_SURFACE_WITH_KNOTS('',3,3,((#1077,#1078,#1079,#1080,#1081),
(#1082,#1083,#1084,#1085,#1086),(#1087,#1088,#1089,#1090,#1091),(#1092,
#1093,#1094,#1095,#1096),(#1097,#1098,#1099,#1100,#1101)),.UNSPECIFIED.,
 .F.,.F.,.F.,(4,1,4),(4,1,4),(0.,0.5,1.),(0.,0.673198425769243,1.5707963267949),
 .UNSPECIFIED.);
#55=FACE_OUTER_BOUND('',#96,.T.);
#56=FACE_OUTER_BOUND('',#97,.T.);
#57=FACE_OUTER_BOUND('',#98,.T.);
#58=FACE_OUTER_BOUND('',#99,.T.);
#59=FACE_OUTER_BOUND('',#100,.T.);
#60=FACE_OUTER_BOUND('',#101,.T.);
#61=FACE_OUTER_BOUND('',#102,.T.);
#62=FACE_OUTER_BOUND('',#103,.T.);
#63=FACE_OUTER_BOUND('',#104,.T.);
#64=FACE_OUTER_BOUND('',#108,.T.);
#65=FACE_OUTER_BOUND('',#109,.T.);
#66=FACE_OUTER_BOUND('',#113,.T.);
#67=FACE_OUTER_BOUND('',#114,.T.);
#68=FACE_OUTER_BOUND('',#115,.T.);
#69=FACE_OUTER_BOUND('',#116,.T.);
#70=FACE_OUTER_BOUND('',#117,.T.);
#71=FACE_OUTER_BOUND('',#118,.T.);
#72=FACE_OUTER_BOUND('',#119,.T.);
#73=FACE_OUTER_BOUND('',#120,.T.);
#74=FACE_OUTER_BOUND('',#121,.T.);
#75=FACE_OUTER_BOUND('',#122,.T.);
#76=FACE_OUTER_BOUND('',#123,.T.);
#77=FACE_OUTER_BOUND('',#124,.T.);
#78=FACE_OUTER_BOUND('',#125,.T.);
#79=FACE_OUTER_BOUND('',#126,.T.);
#80=FACE_OUTER_BOUND('',#127,.T.);
#81=FACE_OUTER_BOUND('',#128,.T.);
#82=FACE_OUTER_BOUND('',#129,.T.);
#83=FACE_OUTER_BOUND('',#130,.T.);
#84=FACE_OUTER_BOUND('',#131,.T.);
#85=FACE_OUTER_BOUND('',#132,.T.);
#86=FACE_OUTER_BOUND('',#133,.T.);
#87=FACE_OUTER_BOUND('',#134,.T.);
#88=FACE_OUTER_BOUND('',#135,.T.);
#89=FACE_OUTER_BOUND('',#136,.T.);
#90=FACE_OUTER_BOUND('',#137,.T.);
#91=FACE_OUTER_BOUND('',#138,.T.);
#92=FACE_OUTER_BOUND('',#139,.T.);
#93=FACE_OUTER_BOUND('',#140,.T.);
#94=FACE_OUTER_BOUND('',#141,.T.);
#95=FACE_OUTER_BOUND('',#142,.T.);
#96=EDGE_LOOP('',(#429,#430,#431,#432));
#97=EDGE_LOOP('',(#433,#434,#435,#436));
#98=EDGE_LOOP('',(#437,#438,#439,#440,#441));
#99=EDGE_LOOP('',(#442,#443,#444,#445));
#100=EDGE_LOOP('',(#446,#447,#448,#449));
#101=EDGE_LOOP('',(#450,#451,#452,#453,#454));
#102=EDGE_LOOP('',(#455,#456,#457,#458,#459));
#103=EDGE_LOOP('',(#460,#461,#462,#463,#464));
#104=EDGE_LOOP('',(#465,#466,#467,#468,#469,#470,#471,#472,#473));
#105=EDGE_LOOP('',(#474));
#106=EDGE_LOOP('',(#475));
#107=EDGE_LOOP('',(#476));
#108=EDGE_LOOP('',(#477,#478,#479,#480));
#109=EDGE_LOOP('',(#481,#482));
#110=EDGE_LOOP('',(#483));
#111=EDGE_LOOP('',(#484));
#112=EDGE_LOOP('',(#485));
#113=EDGE_LOOP('',(#486,#487,#488,#489,#490));
#114=EDGE_LOOP('',(#491,#492,#493,#494,#495));
#115=EDGE_LOOP('',(#496,#497,#498,#499));
#116=EDGE_LOOP('',(#500,#501,#502,#503,#504));
#117=EDGE_LOOP('',(#505,#506,#507,#508,#509));
#118=EDGE_LOOP('',(#510,#511,#512,#513));
#119=EDGE_LOOP('',(#514,#515,#516,#517));
#120=EDGE_LOOP('',(#518,#519,#520,#521,#522,#523,#524));
#121=EDGE_LOOP('',(#525,#526,#527,#528,#529,#530,#531,#532));
#122=EDGE_LOOP('',(#533,#534,#535,#536));
#123=EDGE_LOOP('',(#537,#538,#539,#540));
#124=EDGE_LOOP('',(#541,#542,#543,#544));
#125=EDGE_LOOP('',(#545,#546,#547,#548));
#126=EDGE_LOOP('',(#549,#550,#551,#552));
#127=EDGE_LOOP('',(#553,#554,#555,#556,#557,#558,#559,#560,#561,#562,#563,
#564));
#128=EDGE_LOOP('',(#565,#566,#567));
#129=EDGE_LOOP('',(#568,#569,#570));
#130=EDGE_LOOP('',(#571,#572,#573,#574));
#131=EDGE_LOOP('',(#575,#576,#577,#578));
#132=EDGE_LOOP('',(#579,#580,#581));
#133=EDGE_LOOP('',(#582,#583,#584,#585));
#134=EDGE_LOOP('',(#586,#587,#588,#589));
#135=EDGE_LOOP('',(#590,#591,#592));
#136=EDGE_LOOP('',(#593,#594,#595,#596));
#137=EDGE_LOOP('',(#597,#598,#599,#600));
#138=EDGE_LOOP('',(#601,#602,#603,#604));
#139=EDGE_LOOP('',(#605,#606,#607,#608));
#140=EDGE_LOOP('',(#609,#610,#611,#612,#613,#614,#615,#616));
#141=EDGE_LOOP('',(#617,#618,#619,#620));
#142=EDGE_LOOP('',(#621,#622,#623,#624));
#143=LINE('',#1028,#184);
#144=LINE('',#1031,#185);
#145=LINE('',#1073,#186);
#146=LINE('',#1075,#187);
#147=LINE('',#1076,#188);
#148=LINE('',#1123,#189);
#149=LINE('',#1124,#190);
#150=LINE('',#1127,#191);
#151=LINE('',#1129,#192);
#152=LINE('',#1130,#193);
#153=LINE('',#1141,#194);
#154=LINE('',#1145,#195);
#155=LINE('',#1148,#196);
#156=LINE('',#1150,#197);
#157=LINE('',#1152,#198);
#158=LINE('',#1154,#199);
#159=LINE('',#1155,#200);
#160=LINE('',#1167,#201);
#161=LINE('',#1181,#202);
#162=LINE('',#1193,#203);
#163=LINE('',#1201,#204);
#164=LINE('',#1205,#205);
#165=LINE('',#1207,#206);
#166=LINE('',#1209,#207);
#167=LINE('',#1211,#208);
#168=LINE('',#1213,#209);
#169=LINE('',#1214,#210);
#170=LINE('',#1219,#211);
#171=LINE('',#1224,#212);
#172=LINE('',#1228,#213);
#173=LINE('',#1233,#214);
#174=LINE('',#1236,#215);
#175=LINE('',#1242,#216);
#176=LINE('',#1244,#217);
#177=LINE('',#1246,#218);
#178=LINE('',#1248,#219);
#179=LINE('',#1249,#220);
#180=LINE('',#1269,#221);
#181=LINE('',#1277,#222);
#182=LINE('',#1283,#223);
#183=LINE('',#1285,#224);
#184=VECTOR('',#797,10.);
#185=VECTOR('',#800,10.);
#186=VECTOR('',#807,10.);
#187=VECTOR('',#808,10.);
#188=VECTOR('',#809,10.);
#189=VECTOR('',#820,10.);
#190=VECTOR('',#821,10.);
#191=VECTOR('',#824,10.);
#192=VECTOR('',#825,10.);
#193=VECTOR('',#826,10.);
#194=VECTOR('',#839,1.8);
#195=VECTOR('',#844,10.);
#196=VECTOR('',#847,10.);
#197=VECTOR('',#848,10.);
#198=VECTOR('',#849,10.);
#199=VECTOR('',#850,10.);
#200=VECTOR('',#851,10.);
#201=VECTOR('',#864,10.);
#202=VECTOR('',#881,1.8);
#203=VECTOR('',#898,1.8);
#204=VECTOR('',#909,10.);
#205=VECTOR('',#914,10.);
#206=VECTOR('',#915,10.);
#207=VECTOR('',#916,10.);
#208=VECTOR('',#917,10.);
#209=VECTOR('',#918,10.);
#210=VECTOR('',#919,10.);
#211=VECTOR('',#924,10.);
#212=VECTOR('',#929,10.);
#213=VECTOR('',#936,10.);
#214=VECTOR('',#941,10.);
#215=VECTOR('',#946,10.);
#216=VECTOR('',#955,10.);
#217=VECTOR('',#956,10.);
#218=VECTOR('',#957,10.);
#219=VECTOR('',#958,10.);
#220=VECTOR('',#959,10.);
#221=VECTOR('',#992,10.);
#222=VECTOR('',#1005,10.);
#223=VECTOR('',#1016,10.);
#224=VECTOR('',#1019,10.);
#225=CIRCLE('',#698,0.499999999999998);
#226=CIRCLE('',#699,0.5);
#227=CIRCLE('',#703,0.499999999999996);
#228=CIRCLE('',#707,0.5);
#229=CIRCLE('',#710,2.3);
#230=CIRCLE('',#711,0.5);
#231=CIRCLE('',#712,1.8);
#232=CIRCLE('',#713,1.8);
#233=CIRCLE('',#715,1.8);
#234=CIRCLE('',#717,33.5);
#235=CIRCLE('',#718,2.3);
#236=CIRCLE('',#719,2.3);
#237=CIRCLE('',#721,2.3);
#238=CIRCLE('',#722,0.5);
#239=CIRCLE('',#724,33.5);
#240=CIRCLE('',#725,2.3);
#241=CIRCLE('',#726,2.3);
#242=CIRCLE('',#728,0.5);
#243=CIRCLE('',#729,1.8);
#244=CIRCLE('',#730,1.8);
#245=CIRCLE('',#732,1.8);
#246=CIRCLE('',#734,0.5);
#247=CIRCLE('',#736,0.5);
#248=CIRCLE('',#737,1.8);
#249=CIRCLE('',#738,1.8);
#250=CIRCLE('',#740,1.8);
#251=CIRCLE('',#742,0.5);
#252=CIRCLE('',#744,0.5);
#253=CIRCLE('',#748,0.5);
#254=CIRCLE('',#749,0.5);
#255=CIRCLE('',#751,0.5);
#256=CIRCLE('',#755,0.5);
#257=CIRCLE('',#760,0.5);
#258=CIRCLE('',#763,0.5);
#259=CIRCLE('',#764,0.5);
#260=CIRCLE('',#765,0.499999999999992);
#261=CIRCLE('',#767,0.5);
#262=CIRCLE('',#768,0.5);
#263=CIRCLE('',#769,0.499999999999992);
#264=CIRCLE('',#772,34.);
#265=CIRCLE('',#774,0.499999999999992);
#266=CIRCLE('',#775,0.5);
#267=CIRCLE('',#776,0.5);
#268=CIRCLE('',#780,0.5);
#269=CIRCLE('',#781,0.499999999999992);
#270=CIRCLE('',#782,0.5);
#271=CIRCLE('',#785,34.);
#272=VERTEX_POINT('',#1024);
#273=VERTEX_POINT('',#1025);
#274=VERTEX_POINT('',#1027);
#275=VERTEX_POINT('',#1029);
#276=VERTEX_POINT('',#1057);
#277=VERTEX_POINT('',#1058);
#278=VERTEX_POINT('',#1072);
#279=VERTEX_POINT('',#1074);
#280=VERTEX_POINT('',#1102);
#281=VERTEX_POINT('',#1103);
#282=VERTEX_POINT('',#1105);
#283=VERTEX_POINT('',#1107);
#284=VERTEX_POINT('',#1120);
#285=VERTEX_POINT('',#1121);
#286=VERTEX_POINT('',#1126);
#287=VERTEX_POINT('',#1128);
#288=VERTEX_POINT('',#1132);
#289=VERTEX_POINT('',#1134);
#290=VERTEX_POINT('',#1136);
#291=VERTEX_POINT('',#1140);
#292=VERTEX_POINT('',#1144);
#293=VERTEX_POINT('',#1146);
#294=VERTEX_POINT('',#1149);
#295=VERTEX_POINT('',#1151);
#296=VERTEX_POINT('',#1153);
#297=VERTEX_POINT('',#1156);
#298=VERTEX_POINT('',#1158);
#299=VERTEX_POINT('',#1161);
#300=VERTEX_POINT('',#1165);
#301=VERTEX_POINT('',#1166);
#302=VERTEX_POINT('',#1169);
#303=VERTEX_POINT('',#1171);
#304=VERTEX_POINT('',#1174);
#305=VERTEX_POINT('',#1176);
#306=VERTEX_POINT('',#1180);
#307=VERTEX_POINT('',#1186);
#308=VERTEX_POINT('',#1188);
#309=VERTEX_POINT('',#1192);
#310=VERTEX_POINT('',#1198);
#311=VERTEX_POINT('',#1200);
#312=VERTEX_POINT('',#1204);
#313=VERTEX_POINT('',#1206);
#314=VERTEX_POINT('',#1208);
#315=VERTEX_POINT('',#1210);
#316=VERTEX_POINT('',#1212);
#317=VERTEX_POINT('',#1216);
#318=VERTEX_POINT('',#1218);
#319=VERTEX_POINT('',#1222);
#320=VERTEX_POINT('',#1223);
#321=VERTEX_POINT('',#1230);
#322=VERTEX_POINT('',#1232);
#323=VERTEX_POINT('',#1241);
#324=VERTEX_POINT('',#1243);
#325=VERTEX_POINT('',#1245);
#326=VERTEX_POINT('',#1247);
#327=VERTEX_POINT('',#1251);
#328=VERTEX_POINT('',#1256);
#329=VERTEX_POINT('',#1264);
#330=VERTEX_POINT('',#1273);
#331=EDGE_CURVE('',#272,#273,#225,.T.);
#332=EDGE_CURVE('',#273,#274,#143,.T.);
#333=EDGE_CURVE('',#274,#275,#226,.T.);
#334=EDGE_CURVE('',#275,#272,#144,.T.);
#335=EDGE_CURVE('',#276,#277,#51,.T.);
#336=EDGE_CURVE('',#277,#273,#43,.T.);
#337=EDGE_CURVE('',#272,#276,#44,.T.);
#338=EDGE_CURVE('',#275,#278,#145,.T.);
#339=EDGE_CURVE('',#279,#278,#146,.T.);
#340=EDGE_CURVE('',#276,#279,#147,.T.);
#341=EDGE_CURVE('',#280,#281,#227,.T.);
#342=EDGE_CURVE('',#281,#282,#45,.T.);
#343=EDGE_CURVE('',#282,#283,#52,.T.);
#344=EDGE_CURVE('',#283,#280,#46,.T.);
#345=EDGE_CURVE('',#284,#285,#228,.T.);
#346=EDGE_CURVE('',#285,#281,#148,.T.);
#347=EDGE_CURVE('',#280,#284,#149,.T.);
#348=EDGE_CURVE('',#283,#286,#150,.T.);
#349=EDGE_CURVE('',#287,#286,#151,.T.);
#350=EDGE_CURVE('',#284,#287,#152,.T.);
#351=EDGE_CURVE('',#288,#288,#229,.T.);
#352=EDGE_CURVE('',#288,#289,#230,.T.);
#353=EDGE_CURVE('',#289,#290,#231,.T.);
#354=EDGE_CURVE('',#290,#289,#232,.T.);
#355=EDGE_CURVE('',#290,#291,#153,.T.);
#356=EDGE_CURVE('',#291,#291,#233,.T.);
#357=EDGE_CURVE('',#292,#273,#154,.T.);
#358=EDGE_CURVE('',#293,#292,#234,.T.);
#359=EDGE_CURVE('',#281,#293,#155,.T.);
#360=EDGE_CURVE('',#285,#294,#156,.T.);
#361=EDGE_CURVE('',#295,#294,#157,.T.);
#362=EDGE_CURVE('',#296,#295,#158,.T.);
#363=EDGE_CURVE('',#296,#274,#159,.T.);
#364=EDGE_CURVE('',#297,#297,#235,.T.);
#365=EDGE_CURVE('',#298,#298,#236,.T.);
#366=EDGE_CURVE('',#299,#299,#237,.T.);
#367=EDGE_CURVE('',#299,#291,#238,.T.);
#368=EDGE_CURVE('',#300,#301,#160,.T.);
#369=EDGE_CURVE('',#301,#300,#239,.T.);
#370=EDGE_CURVE('',#302,#302,#240,.T.);
#371=EDGE_CURVE('',#303,#303,#241,.T.);
#372=EDGE_CURVE('',#297,#304,#242,.T.);
#373=EDGE_CURVE('',#304,#305,#243,.T.);
#374=EDGE_CURVE('',#305,#304,#244,.T.);
#375=EDGE_CURVE('',#305,#306,#161,.T.);
#376=EDGE_CURVE('',#306,#306,#245,.T.);
#377=EDGE_CURVE('',#302,#306,#246,.T.);
#378=EDGE_CURVE('',#298,#307,#247,.T.);
#379=EDGE_CURVE('',#307,#308,#248,.T.);
#380=EDGE_CURVE('',#308,#307,#249,.T.);
#381=EDGE_CURVE('',#308,#309,#162,.T.);
#382=EDGE_CURVE('',#309,#309,#250,.T.);
#383=EDGE_CURVE('',#303,#309,#251,.T.);
#384=EDGE_CURVE('',#278,#310,#252,.T.);
#385=EDGE_CURVE('',#310,#311,#163,.T.);
#386=EDGE_CURVE('',#311,#279,#47,.T.);
#387=EDGE_CURVE('',#310,#312,#164,.T.);
#388=EDGE_CURVE('',#313,#312,#165,.T.);
#389=EDGE_CURVE('',#314,#313,#166,.T.);
#390=EDGE_CURVE('',#314,#315,#167,.T.);
#391=EDGE_CURVE('',#316,#315,#168,.T.);
#392=EDGE_CURVE('',#316,#311,#169,.T.);
#393=EDGE_CURVE('',#317,#296,#253,.T.);
#394=EDGE_CURVE('',#317,#318,#170,.T.);
#395=EDGE_CURVE('',#312,#318,#254,.T.);
#396=EDGE_CURVE('',#319,#320,#171,.T.);
#397=EDGE_CURVE('',#320,#314,#255,.T.);
#398=EDGE_CURVE('',#313,#319,#48,.T.);
#399=EDGE_CURVE('',#318,#319,#172,.T.);
#400=EDGE_CURVE('',#294,#321,#256,.T.);
#401=EDGE_CURVE('',#321,#322,#173,.T.);
#402=EDGE_CURVE('',#322,#295,#49,.T.);
#403=EDGE_CURVE('',#322,#317,#174,.T.);
#404=EDGE_CURVE('',#286,#316,#50,.T.);
#405=EDGE_CURVE('',#315,#287,#257,.T.);
#406=EDGE_CURVE('',#323,#282,#175,.T.);
#407=EDGE_CURVE('',#324,#323,#176,.T.);
#408=EDGE_CURVE('',#325,#324,#177,.T.);
#409=EDGE_CURVE('',#326,#325,#178,.T.);
#410=EDGE_CURVE('',#277,#326,#179,.T.);
#411=EDGE_CURVE('',#300,#327,#258,.F.);
#412=EDGE_CURVE('',#324,#300,#259,.F.);
#413=EDGE_CURVE('',#327,#324,#260,.F.);
#414=EDGE_CURVE('',#325,#328,#261,.F.);
#415=EDGE_CURVE('',#301,#325,#262,.F.);
#416=EDGE_CURVE('',#328,#301,#263,.F.);
#417=EDGE_CURVE('',#327,#328,#264,.T.);
#418=EDGE_CURVE('',#329,#293,#265,.F.);
#419=EDGE_CURVE('',#323,#329,#266,.F.);
#420=EDGE_CURVE('',#293,#323,#267,.F.);
#421=EDGE_CURVE('',#329,#327,#180,.T.);
#422=EDGE_CURVE('',#326,#292,#268,.F.);
#423=EDGE_CURVE('',#330,#326,#269,.F.);
#424=EDGE_CURVE('',#292,#330,#270,.F.);
#425=EDGE_CURVE('',#328,#330,#181,.T.);
#426=EDGE_CURVE('',#330,#329,#271,.T.);
#427=EDGE_CURVE('',#321,#320,#182,.T.);
#428=EDGE_CURVE('',#322,#319,#183,.T.);
#429=ORIENTED_EDGE('',*,*,#331,.T.);
#430=ORIENTED_EDGE('',*,*,#332,.T.);
#431=ORIENTED_EDGE('',*,*,#333,.T.);
#432=ORIENTED_EDGE('',*,*,#334,.T.);
#433=ORIENTED_EDGE('',*,*,#335,.T.);
#434=ORIENTED_EDGE('',*,*,#336,.T.);
#435=ORIENTED_EDGE('',*,*,#331,.F.);
#436=ORIENTED_EDGE('',*,*,#337,.T.);
#437=ORIENTED_EDGE('',*,*,#337,.F.);
#438=ORIENTED_EDGE('',*,*,#334,.F.);
#439=ORIENTED_EDGE('',*,*,#338,.T.);
#440=ORIENTED_EDGE('',*,*,#339,.F.);
#441=ORIENTED_EDGE('',*,*,#340,.F.);
#442=ORIENTED_EDGE('',*,*,#341,.T.);
#443=ORIENTED_EDGE('',*,*,#342,.T.);
#444=ORIENTED_EDGE('',*,*,#343,.T.);
#445=ORIENTED_EDGE('',*,*,#344,.T.);
#446=ORIENTED_EDGE('',*,*,#345,.T.);
#447=ORIENTED_EDGE('',*,*,#346,.T.);
#448=ORIENTED_EDGE('',*,*,#341,.F.);
#449=ORIENTED_EDGE('',*,*,#347,.T.);
#450=ORIENTED_EDGE('',*,*,#347,.F.);
#451=ORIENTED_EDGE('',*,*,#344,.F.);
#452=ORIENTED_EDGE('',*,*,#348,.T.);
#453=ORIENTED_EDGE('',*,*,#349,.F.);
#454=ORIENTED_EDGE('',*,*,#350,.F.);
#455=ORIENTED_EDGE('',*,*,#351,.T.);
#456=ORIENTED_EDGE('',*,*,#352,.T.);
#457=ORIENTED_EDGE('',*,*,#353,.T.);
#458=ORIENTED_EDGE('',*,*,#354,.T.);
#459=ORIENTED_EDGE('',*,*,#352,.F.);
#460=ORIENTED_EDGE('',*,*,#354,.F.);
#461=ORIENTED_EDGE('',*,*,#355,.T.);
#462=ORIENTED_EDGE('',*,*,#356,.F.);
#463=ORIENTED_EDGE('',*,*,#355,.F.);
#464=ORIENTED_EDGE('',*,*,#353,.F.);
#465=ORIENTED_EDGE('',*,*,#332,.F.);
#466=ORIENTED_EDGE('',*,*,#357,.F.);
#467=ORIENTED_EDGE('',*,*,#358,.F.);
#468=ORIENTED_EDGE('',*,*,#359,.F.);
#469=ORIENTED_EDGE('',*,*,#346,.F.);
#470=ORIENTED_EDGE('',*,*,#360,.T.);
#471=ORIENTED_EDGE('',*,*,#361,.F.);
#472=ORIENTED_EDGE('',*,*,#362,.F.);
#473=ORIENTED_EDGE('',*,*,#363,.T.);
#474=ORIENTED_EDGE('',*,*,#364,.F.);
#475=ORIENTED_EDGE('',*,*,#365,.F.);
#476=ORIENTED_EDGE('',*,*,#351,.F.);
#477=ORIENTED_EDGE('',*,*,#366,.T.);
#478=ORIENTED_EDGE('',*,*,#367,.T.);
#479=ORIENTED_EDGE('',*,*,#356,.T.);
#480=ORIENTED_EDGE('',*,*,#367,.F.);
#481=ORIENTED_EDGE('',*,*,#368,.F.);
#482=ORIENTED_EDGE('',*,*,#369,.F.);
#483=ORIENTED_EDGE('',*,*,#370,.F.);
#484=ORIENTED_EDGE('',*,*,#371,.F.);
#485=ORIENTED_EDGE('',*,*,#366,.F.);
#486=ORIENTED_EDGE('',*,*,#364,.T.);
#487=ORIENTED_EDGE('',*,*,#372,.T.);
#488=ORIENTED_EDGE('',*,*,#373,.T.);
#489=ORIENTED_EDGE('',*,*,#374,.T.);
#490=ORIENTED_EDGE('',*,*,#372,.F.);
#491=ORIENTED_EDGE('',*,*,#374,.F.);
#492=ORIENTED_EDGE('',*,*,#375,.T.);
#493=ORIENTED_EDGE('',*,*,#376,.F.);
#494=ORIENTED_EDGE('',*,*,#375,.F.);
#495=ORIENTED_EDGE('',*,*,#373,.F.);
#496=ORIENTED_EDGE('',*,*,#370,.T.);
#497=ORIENTED_EDGE('',*,*,#377,.T.);
#498=ORIENTED_EDGE('',*,*,#376,.T.);
#499=ORIENTED_EDGE('',*,*,#377,.F.);
#500=ORIENTED_EDGE('',*,*,#365,.T.);
#501=ORIENTED_EDGE('',*,*,#378,.T.);
#502=ORIENTED_EDGE('',*,*,#379,.T.);
#503=ORIENTED_EDGE('',*,*,#380,.T.);
#504=ORIENTED_EDGE('',*,*,#378,.F.);
#505=ORIENTED_EDGE('',*,*,#380,.F.);
#506=ORIENTED_EDGE('',*,*,#381,.T.);
#507=ORIENTED_EDGE('',*,*,#382,.F.);
#508=ORIENTED_EDGE('',*,*,#381,.F.);
#509=ORIENTED_EDGE('',*,*,#379,.F.);
#510=ORIENTED_EDGE('',*,*,#371,.T.);
#511=ORIENTED_EDGE('',*,*,#383,.T.);
#512=ORIENTED_EDGE('',*,*,#382,.T.);
#513=ORIENTED_EDGE('',*,*,#383,.F.);
#514=ORIENTED_EDGE('',*,*,#384,.T.);
#515=ORIENTED_EDGE('',*,*,#385,.T.);
#516=ORIENTED_EDGE('',*,*,#386,.T.);
#517=ORIENTED_EDGE('',*,*,#339,.T.);
#518=ORIENTED_EDGE('',*,*,#385,.F.);
#519=ORIENTED_EDGE('',*,*,#387,.T.);
#520=ORIENTED_EDGE('',*,*,#388,.F.);
#521=ORIENTED_EDGE('',*,*,#389,.F.);
#522=ORIENTED_EDGE('',*,*,#390,.T.);
#523=ORIENTED_EDGE('',*,*,#391,.F.);
#524=ORIENTED_EDGE('',*,*,#392,.T.);
#525=ORIENTED_EDGE('',*,*,#384,.F.);
#526=ORIENTED_EDGE('',*,*,#338,.F.);
#527=ORIENTED_EDGE('',*,*,#333,.F.);
#528=ORIENTED_EDGE('',*,*,#363,.F.);
#529=ORIENTED_EDGE('',*,*,#393,.F.);
#530=ORIENTED_EDGE('',*,*,#394,.T.);
#531=ORIENTED_EDGE('',*,*,#395,.F.);
#532=ORIENTED_EDGE('',*,*,#387,.F.);
#533=ORIENTED_EDGE('',*,*,#396,.T.);
#534=ORIENTED_EDGE('',*,*,#397,.T.);
#535=ORIENTED_EDGE('',*,*,#389,.T.);
#536=ORIENTED_EDGE('',*,*,#398,.T.);
#537=ORIENTED_EDGE('',*,*,#388,.T.);
#538=ORIENTED_EDGE('',*,*,#395,.T.);
#539=ORIENTED_EDGE('',*,*,#399,.T.);
#540=ORIENTED_EDGE('',*,*,#398,.F.);
#541=ORIENTED_EDGE('',*,*,#361,.T.);
#542=ORIENTED_EDGE('',*,*,#400,.T.);
#543=ORIENTED_EDGE('',*,*,#401,.T.);
#544=ORIENTED_EDGE('',*,*,#402,.T.);
#545=ORIENTED_EDGE('',*,*,#403,.T.);
#546=ORIENTED_EDGE('',*,*,#393,.T.);
#547=ORIENTED_EDGE('',*,*,#362,.T.);
#548=ORIENTED_EDGE('',*,*,#402,.F.);
#549=ORIENTED_EDGE('',*,*,#404,.T.);
#550=ORIENTED_EDGE('',*,*,#391,.T.);
#551=ORIENTED_EDGE('',*,*,#405,.T.);
#552=ORIENTED_EDGE('',*,*,#349,.T.);
#553=ORIENTED_EDGE('',*,*,#386,.F.);
#554=ORIENTED_EDGE('',*,*,#392,.F.);
#555=ORIENTED_EDGE('',*,*,#404,.F.);
#556=ORIENTED_EDGE('',*,*,#348,.F.);
#557=ORIENTED_EDGE('',*,*,#343,.F.);
#558=ORIENTED_EDGE('',*,*,#406,.F.);
#559=ORIENTED_EDGE('',*,*,#407,.F.);
#560=ORIENTED_EDGE('',*,*,#408,.F.);
#561=ORIENTED_EDGE('',*,*,#409,.F.);
#562=ORIENTED_EDGE('',*,*,#410,.F.);
#563=ORIENTED_EDGE('',*,*,#335,.F.);
#564=ORIENTED_EDGE('',*,*,#340,.T.);
#565=ORIENTED_EDGE('',*,*,#411,.F.);
#566=ORIENTED_EDGE('',*,*,#412,.F.);
#567=ORIENTED_EDGE('',*,*,#413,.F.);
#568=ORIENTED_EDGE('',*,*,#414,.F.);
#569=ORIENTED_EDGE('',*,*,#415,.F.);
#570=ORIENTED_EDGE('',*,*,#416,.F.);
#571=ORIENTED_EDGE('',*,*,#415,.T.);
#572=ORIENTED_EDGE('',*,*,#408,.T.);
#573=ORIENTED_EDGE('',*,*,#412,.T.);
#574=ORIENTED_EDGE('',*,*,#368,.T.);
#575=ORIENTED_EDGE('',*,*,#411,.T.);
#576=ORIENTED_EDGE('',*,*,#417,.T.);
#577=ORIENTED_EDGE('',*,*,#416,.T.);
#578=ORIENTED_EDGE('',*,*,#369,.T.);
#579=ORIENTED_EDGE('',*,*,#418,.F.);
#580=ORIENTED_EDGE('',*,*,#419,.F.);
#581=ORIENTED_EDGE('',*,*,#420,.F.);
#582=ORIENTED_EDGE('',*,*,#419,.T.);
#583=ORIENTED_EDGE('',*,*,#421,.T.);
#584=ORIENTED_EDGE('',*,*,#413,.T.);
#585=ORIENTED_EDGE('',*,*,#407,.T.);
#586=ORIENTED_EDGE('',*,*,#342,.F.);
#587=ORIENTED_EDGE('',*,*,#359,.T.);
#588=ORIENTED_EDGE('',*,*,#420,.T.);
#589=ORIENTED_EDGE('',*,*,#406,.T.);
#590=ORIENTED_EDGE('',*,*,#422,.F.);
#591=ORIENTED_EDGE('',*,*,#423,.F.);
#592=ORIENTED_EDGE('',*,*,#424,.F.);
#593=ORIENTED_EDGE('',*,*,#423,.T.);
#594=ORIENTED_EDGE('',*,*,#409,.T.);
#595=ORIENTED_EDGE('',*,*,#414,.T.);
#596=ORIENTED_EDGE('',*,*,#425,.T.);
#597=ORIENTED_EDGE('',*,*,#418,.T.);
#598=ORIENTED_EDGE('',*,*,#358,.T.);
#599=ORIENTED_EDGE('',*,*,#424,.T.);
#600=ORIENTED_EDGE('',*,*,#426,.T.);
#601=ORIENTED_EDGE('',*,*,#336,.F.);
#602=ORIENTED_EDGE('',*,*,#410,.T.);
#603=ORIENTED_EDGE('',*,*,#422,.T.);
#604=ORIENTED_EDGE('',*,*,#357,.T.);
#605=ORIENTED_EDGE('',*,*,#417,.F.);
#606=ORIENTED_EDGE('',*,*,#421,.F.);
#607=ORIENTED_EDGE('',*,*,#426,.F.);
#608=ORIENTED_EDGE('',*,*,#425,.F.);
#609=ORIENTED_EDGE('',*,*,#397,.F.);
#610=ORIENTED_EDGE('',*,*,#427,.F.);
#611=ORIENTED_EDGE('',*,*,#400,.F.);
#612=ORIENTED_EDGE('',*,*,#360,.F.);
#613=ORIENTED_EDGE('',*,*,#345,.F.);
#614=ORIENTED_EDGE('',*,*,#350,.T.);
#615=ORIENTED_EDGE('',*,*,#405,.F.);
#616=ORIENTED_EDGE('',*,*,#390,.F.);
#617=ORIENTED_EDGE('',*,*,#396,.F.);
#618=ORIENTED_EDGE('',*,*,#428,.F.);
#619=ORIENTED_EDGE('',*,*,#401,.F.);
#620=ORIENTED_EDGE('',*,*,#427,.T.);
#621=ORIENTED_EDGE('',*,*,#399,.F.);
#622=ORIENTED_EDGE('',*,*,#394,.F.);
#623=ORIENTED_EDGE('',*,*,#403,.F.);
#624=ORIENTED_EDGE('',*,*,#428,.T.);
#625=CYLINDRICAL_SURFACE('',#697,0.5);
#626=CYLINDRICAL_SURFACE('',#706,0.5);
#627=CYLINDRICAL_SURFACE('',#714,1.8);
#628=CYLINDRICAL_SURFACE('',#731,1.8);
#629=CYLINDRICAL_SURFACE('',#739,1.8);
#630=CYLINDRICAL_SURFACE('',#743,0.5);
#631=CYLINDRICAL_SURFACE('',#750,0.5);
#632=CYLINDRICAL_SURFACE('',#753,0.5);
#633=CYLINDRICAL_SURFACE('',#754,0.5);
#634=CYLINDRICAL_SURFACE('',#757,0.5);
#635=CYLINDRICAL_SURFACE('',#758,0.5);
#636=CYLINDRICAL_SURFACE('',#770,0.5);
#637=CYLINDRICAL_SURFACE('',#777,0.5);
#638=CYLINDRICAL_SURFACE('',#778,0.5);
#639=CYLINDRICAL_SURFACE('',#783,0.5);
#640=CYLINDRICAL_SURFACE('',#786,0.5);
#641=CYLINDRICAL_SURFACE('',#787,34.);
#642=ADVANCED_FACE('',(#55),#625,.F.);
#643=ADVANCED_FACE('',(#56),#53,.T.);
#644=ADVANCED_FACE('',(#57),#33,.T.);
#645=ADVANCED_FACE('',(#58),#54,.T.);
#646=ADVANCED_FACE('',(#59),#626,.F.);
#647=ADVANCED_FACE('',(#60),#34,.T.);
#648=ADVANCED_FACE('',(#61),#25,.T.);
#649=ADVANCED_FACE('',(#62),#627,.F.);
#650=ADVANCED_FACE('',(#63,#19,#20,#21),#35,.T.);
#651=ADVANCED_FACE('',(#64),#26,.T.);
#652=ADVANCED_FACE('',(#65,#22,#23,#24),#36,.F.);
#653=ADVANCED_FACE('',(#66),#27,.T.);
#654=ADVANCED_FACE('',(#67),#628,.F.);
#655=ADVANCED_FACE('',(#68),#28,.T.);
#656=ADVANCED_FACE('',(#69),#29,.T.);
#657=ADVANCED_FACE('',(#70),#629,.F.);
#658=ADVANCED_FACE('',(#71),#30,.T.);
#659=ADVANCED_FACE('',(#72),#630,.T.);
#660=ADVANCED_FACE('',(#73),#37,.T.);
#661=ADVANCED_FACE('',(#74),#38,.T.);
#662=ADVANCED_FACE('',(#75),#631,.T.);
#663=ADVANCED_FACE('',(#76),#632,.T.);
#664=ADVANCED_FACE('',(#77),#633,.F.);
#665=ADVANCED_FACE('',(#78),#634,.F.);
#666=ADVANCED_FACE('',(#79),#635,.T.);
#667=ADVANCED_FACE('',(#80),#39,.T.);
#668=ADVANCED_FACE('',(#81),#15,.T.);
#669=ADVANCED_FACE('',(#82),#16,.T.);
#670=ADVANCED_FACE('',(#83),#636,.T.);
#671=ADVANCED_FACE('',(#84),#31,.T.);
#672=ADVANCED_FACE('',(#85),#17,.T.);
#673=ADVANCED_FACE('',(#86),#637,.T.);
#674=ADVANCED_FACE('',(#87),#638,.T.);
#675=ADVANCED_FACE('',(#88),#18,.T.);
#676=ADVANCED_FACE('',(#89),#639,.T.);
#677=ADVANCED_FACE('',(#90),#32,.T.);
#678=ADVANCED_FACE('',(#91),#640,.T.);
#679=ADVANCED_FACE('',(#92),#641,.T.);
#680=ADVANCED_FACE('',(#93),#40,.T.);
#681=ADVANCED_FACE('',(#94),#41,.T.);
#682=ADVANCED_FACE('',(#95),#42,.T.);
#683=CLOSED_SHELL('',(#642,#643,#644,#645,#646,#647,#648,#649,#650,#651,
#652,#653,#654,#655,#656,#657,#658,#659,#660,#661,#662,#663,#664,#665,#666,
#667,#668,#669,#670,#671,#672,#673,#674,#675,#676,#677,#678,#679,#680,#681,
#682));
#684=DERIVED_UNIT_ELEMENT(#686,1.);
#685=DERIVED_UNIT_ELEMENT(#1292,-3.);
#686=(
MASS_UNIT()
NAMED_UNIT(*)
SI_UNIT(.KILO.,.GRAM.)
);
#687=DERIVED_UNIT((#684,#685));
#688=MEASURE_REPRESENTATION_ITEM('density measure',
POSITIVE_RATIO_MEASURE(7850.),#687);
#689=PROPERTY_DEFINITION_REPRESENTATION(#694,#691);
#690=PROPERTY_DEFINITION_REPRESENTATION(#695,#692);
#691=REPRESENTATION('material name',(#693),#1289);
#692=REPRESENTATION('density',(#688),#1289);
#693=DESCRIPTIVE_REPRESENTATION_ITEM('Steel','Steel');
#694=PROPERTY_DEFINITION('material property','material name',#1299);
#695=PROPERTY_DEFINITION('material property','density of part',#1299);
#696=AXIS2_PLACEMENT_3D('',#1022,#791,#792);
#697=AXIS2_PLACEMENT_3D('',#1023,#793,#794);
#698=AXIS2_PLACEMENT_3D('',#1026,#795,#796);
#699=AXIS2_PLACEMENT_3D('',#1030,#798,#799);
#700=AXIS2_PLACEMENT_3D('',#1069,#801,#802);
#701=AXIS2_PLACEMENT_3D('',#1070,#803,#804);
#702=AXIS2_PLACEMENT_3D('',#1071,#805,#806);
#703=AXIS2_PLACEMENT_3D('',#1104,#810,#811);
#704=AXIS2_PLACEMENT_3D('',#1106,#812,#813);
#705=AXIS2_PLACEMENT_3D('',#1118,#814,#815);
#706=AXIS2_PLACEMENT_3D('',#1119,#816,#817);
#707=AXIS2_PLACEMENT_3D('',#1122,#818,#819);
#708=AXIS2_PLACEMENT_3D('',#1125,#822,#823);
#709=AXIS2_PLACEMENT_3D('',#1131,#827,#828);
#710=AXIS2_PLACEMENT_3D('',#1133,#829,#830);
#711=AXIS2_PLACEMENT_3D('',#1135,#831,#832);
#712=AXIS2_PLACEMENT_3D('',#1137,#833,#834);
#713=AXIS2_PLACEMENT_3D('',#1138,#835,#836);
#714=AXIS2_PLACEMENT_3D('',#1139,#837,#838);
#715=AXIS2_PLACEMENT_3D('',#1142,#840,#841);
#716=AXIS2_PLACEMENT_3D('',#1143,#842,#843);
#717=AXIS2_PLACEMENT_3D('',#1147,#845,#846);
#718=AXIS2_PLACEMENT_3D('',#1157,#852,#853);
#719=AXIS2_PLACEMENT_3D('',#1159,#854,#855);
#720=AXIS2_PLACEMENT_3D('',#1160,#856,#857);
#721=AXIS2_PLACEMENT_3D('',#1162,#858,#859);
#722=AXIS2_PLACEMENT_3D('',#1163,#860,#861);
#723=AXIS2_PLACEMENT_3D('',#1164,#862,#863);
#724=AXIS2_PLACEMENT_3D('',#1168,#865,#866);
#725=AXIS2_PLACEMENT_3D('',#1170,#867,#868);
#726=AXIS2_PLACEMENT_3D('',#1172,#869,#870);
#727=AXIS2_PLACEMENT_3D('',#1173,#871,#872);
#728=AXIS2_PLACEMENT_3D('',#1175,#873,#874);
#729=AXIS2_PLACEMENT_3D('',#1177,#875,#876);
#730=AXIS2_PLACEMENT_3D('',#1178,#877,#878);
#731=AXIS2_PLACEMENT_3D('',#1179,#879,#880);
#732=AXIS2_PLACEMENT_3D('',#1182,#882,#883);
#733=AXIS2_PLACEMENT_3D('',#1183,#884,#885);
#734=AXIS2_PLACEMENT_3D('',#1184,#886,#887);
#735=AXIS2_PLACEMENT_3D('',#1185,#888,#889);
#736=AXIS2_PLACEMENT_3D('',#1187,#890,#891);
#737=AXIS2_PLACEMENT_3D('',#1189,#892,#893);
#738=AXIS2_PLACEMENT_3D('',#1190,#894,#895);
#739=AXIS2_PLACEMENT_3D('',#1191,#896,#897);
#740=AXIS2_PLACEMENT_3D('',#1194,#899,#900);
#741=AXIS2_PLACEMENT_3D('',#1195,#901,#902);
#742=AXIS2_PLACEMENT_3D('',#1196,#903,#904);
#743=AXIS2_PLACEMENT_3D('',#1197,#905,#906);
#744=AXIS2_PLACEMENT_3D('',#1199,#907,#908);
#745=AXIS2_PLACEMENT_3D('',#1202,#910,#911);
#746=AXIS2_PLACEMENT_3D('',#1203,#912,#913);
#747=AXIS2_PLACEMENT_3D('',#1215,#920,#921);
#748=AXIS2_PLACEMENT_3D('',#1217,#922,#923);
#749=AXIS2_PLACEMENT_3D('',#1220,#925,#926);
#750=AXIS2_PLACEMENT_3D('',#1221,#927,#928);
#751=AXIS2_PLACEMENT_3D('',#1225,#930,#931);
#752=AXIS2_PLACEMENT_3D('',#1226,#932,#933);
#753=AXIS2_PLACEMENT_3D('',#1227,#934,#935);
#754=AXIS2_PLACEMENT_3D('',#1229,#937,#938);
#755=AXIS2_PLACEMENT_3D('',#1231,#939,#940);
#756=AXIS2_PLACEMENT_3D('',#1234,#942,#943);
#757=AXIS2_PLACEMENT_3D('',#1235,#944,#945);
#758=AXIS2_PLACEMENT_3D('',#1237,#947,#948);
#759=AXIS2_PLACEMENT_3D('',#1238,#949,#950);
#760=AXIS2_PLACEMENT_3D('',#1239,#951,#952);
#761=AXIS2_PLACEMENT_3D('',#1240,#953,#954);
#762=AXIS2_PLACEMENT_3D('',#1250,#960,#961);
#763=AXIS2_PLACEMENT_3D('',#1252,#962,#963);
#764=AXIS2_PLACEMENT_3D('',#1253,#964,#965);
#765=AXIS2_PLACEMENT_3D('',#1254,#966,#967);
#766=AXIS2_PLACEMENT_3D('',#1255,#968,#969);
#767=AXIS2_PLACEMENT_3D('',#1257,#970,#971);
#768=AXIS2_PLACEMENT_3D('',#1258,#972,#973);
#769=AXIS2_PLACEMENT_3D('',#1259,#974,#975);
#770=AXIS2_PLACEMENT_3D('',#1260,#976,#977);
#771=AXIS2_PLACEMENT_3D('',#1261,#978,#979);
#772=AXIS2_PLACEMENT_3D('',#1262,#980,#981);
#773=AXIS2_PLACEMENT_3D('',#1263,#982,#983);
#774=AXIS2_PLACEMENT_3D('',#1265,#984,#985);
#775=AXIS2_PLACEMENT_3D('',#1266,#986,#987);
#776=AXIS2_PLACEMENT_3D('',#1267,#988,#989);
#777=AXIS2_PLACEMENT_3D('',#1268,#990,#991);
#778=AXIS2_PLACEMENT_3D('',#1270,#993,#994);
#779=AXIS2_PLACEMENT_3D('',#1271,#995,#996);
#780=AXIS2_PLACEMENT_3D('',#1272,#997,#998);
#781=AXIS2_PLACEMENT_3D('',#1274,#999,#1000);
#782=AXIS2_PLACEMENT_3D('',#1275,#1001,#1002);
#783=AXIS2_PLACEMENT_3D('',#1276,#1003,#1004);
#784=AXIS2_PLACEMENT_3D('',#1278,#1006,#1007);
#785=AXIS2_PLACEMENT_3D('',#1279,#1008,#1009);
#786=AXIS2_PLACEMENT_3D('',#1280,#1010,#1011);
#787=AXIS2_PLACEMENT_3D('',#1281,#1012,#1013);
#788=AXIS2_PLACEMENT_3D('',#1282,#1014,#1015);
#789=AXIS2_PLACEMENT_3D('',#1284,#1017,#1018);
#790=AXIS2_PLACEMENT_3D('',#1286,#1020,#1021);
#791=DIRECTION('axis',(0.,0.,1.));
#792=DIRECTION('refdir',(1.,0.,0.));
#793=DIRECTION('center_axis',(-0.5,-0.866025403784438,0.));
#794=DIRECTION('ref_axis',(-0.612372435695792,0.353553390593273,-0.70710678118655));
#795=DIRECTION('center_axis',(-0.500000000000002,-0.866025403784437,9.6148134319178E-15));
#796=DIRECTION('ref_axis',(-0.866025403784437,0.500000000000002,0.));
#797=DIRECTION('',(0.5,0.866025403784438,0.));
#798=DIRECTION('center_axis',(0.500000000000002,0.866025403784437,0.));
#799=DIRECTION('ref_axis',(-0.612372435695792,0.353553390593273,-0.70710678118655));
#800=DIRECTION('',(-0.5,-0.866025403784438,0.));
#801=DIRECTION('center_axis',(-0.654653670707979,0.755928946018453,0.));
#802=DIRECTION('ref_axis',(-0.755928946018453,-0.654653670707979,0.));
#803=DIRECTION('center_axis',(0.866025403784438,-0.5,0.));
#804=DIRECTION('ref_axis',(-0.5,-0.866025403784438,6.00925839494864E-17));
#805=DIRECTION('center_axis',(0.866025403784438,-0.5,0.));
#806=DIRECTION('ref_axis',(0.5,0.866025403784438,0.));
#807=DIRECTION('',(0.,0.,1.));
#808=DIRECTION('',(0.5,0.866025403784438,0.));
#809=DIRECTION('',(0.,0.,1.));
#810=DIRECTION('center_axis',(-0.499999999999997,0.86602540378444,2.40370335797946E-16));
#811=DIRECTION('ref_axis',(0.86602540378444,0.499999999999997,0.));
#812=DIRECTION('center_axis',(0.654653670707979,0.755928946018453,1.04906215106289E-16));
#813=DIRECTION('ref_axis',(0.755928946018453,-0.654653670707979,0.));
#814=DIRECTION('center_axis',(-0.866025403784439,-0.5,0.));
#815=DIRECTION('ref_axis',(0.5,-0.866025403784439,-1.20185167898973E-16));
#816=DIRECTION('center_axis',(-0.5,0.866025403784439,0.));
#817=DIRECTION('ref_axis',(0.612372435695792,0.353553390593273,-0.70710678118655));
#818=DIRECTION('center_axis',(-0.500000000000002,0.866025403784437,0.));
#819=DIRECTION('ref_axis',(0.612372435695792,0.353553390593273,-0.70710678118655));
#820=DIRECTION('',(0.5,-0.866025403784439,0.));
#821=DIRECTION('',(-0.5,0.866025403784439,0.));
#822=DIRECTION('center_axis',(-0.866025403784439,-0.5,0.));
#823=DIRECTION('ref_axis',(0.5,-0.866025403784439,0.));
#824=DIRECTION('',(0.,0.,1.));
#825=DIRECTION('',(0.5,-0.866025403784439,0.));
#826=DIRECTION('',(0.,0.,1.));
#827=DIRECTION('center_axis',(0.,0.,-1.));
#828=DIRECTION('ref_axis',(-1.,0.,0.));
#829=DIRECTION('center_axis',(0.,0.,1.));
#830=DIRECTION('ref_axis',(1.,0.,0.));
#831=DIRECTION('center_axis',(0.,-1.,0.));
#832=DIRECTION('ref_axis',(1.,0.,0.));
#833=DIRECTION('center_axis',(0.,0.,-1.));
#834=DIRECTION('ref_axis',(1.,0.,0.));
#835=DIRECTION('center_axis',(0.,0.,-1.));
#836=DIRECTION('ref_axis',(1.,0.,0.));
#837=DIRECTION('center_axis',(0.,0.,-1.));
#838=DIRECTION('ref_axis',(1.,0.,0.));
#839=DIRECTION('',(0.,0.,-1.));
#840=DIRECTION('center_axis',(0.,0.,1.));
#841=DIRECTION('ref_axis',(1.,0.,0.));
#842=DIRECTION('center_axis',(0.,0.,1.));
#843=DIRECTION('ref_axis',(1.,0.,0.));
#844=DIRECTION('',(-1.,0.,0.));
#845=DIRECTION('center_axis',(0.,0.,-1.));
#846=DIRECTION('ref_axis',(5.2245789394125E-16,1.,0.));
#847=DIRECTION('',(-1.,0.,0.));
#848=DIRECTION('',(0.866025403784437,0.500000000000002,0.));
#849=DIRECTION('',(-0.499999999999999,0.866025403784439,0.));
#850=DIRECTION('',(-0.5,-0.866025403784439,0.));
#851=DIRECTION('',(0.866025403784437,-0.500000000000002,0.));
#852=DIRECTION('center_axis',(0.,0.,1.));
#853=DIRECTION('ref_axis',(1.,0.,0.));
#854=DIRECTION('center_axis',(0.,0.,1.));
#855=DIRECTION('ref_axis',(1.,0.,0.));
#856=DIRECTION('center_axis',(0.,0.,1.));
#857=DIRECTION('ref_axis',(1.,0.,0.));
#858=DIRECTION('center_axis',(0.,0.,-1.));
#859=DIRECTION('ref_axis',(1.,0.,0.));
#860=DIRECTION('center_axis',(0.,-1.,0.));
#861=DIRECTION('ref_axis',(-1.,0.,0.));
#862=DIRECTION('center_axis',(0.,0.,1.));
#863=DIRECTION('ref_axis',(1.,0.,0.));
#864=DIRECTION('',(1.,0.,0.));
#865=DIRECTION('center_axis',(0.,0.,1.));
#866=DIRECTION('ref_axis',(5.2245789394125E-16,1.,0.));
#867=DIRECTION('center_axis',(0.,0.,-1.));
#868=DIRECTION('ref_axis',(1.,0.,0.));
#869=DIRECTION('center_axis',(0.,0.,-1.));
#870=DIRECTION('ref_axis',(1.,0.,0.));
#871=DIRECTION('center_axis',(0.,0.,-1.));
#872=DIRECTION('ref_axis',(-1.,0.,0.));
#873=DIRECTION('center_axis',(0.,-1.,0.));
#874=DIRECTION('ref_axis',(1.,0.,0.));
#875=DIRECTION('center_axis',(0.,0.,-1.));
#876=DIRECTION('ref_axis',(1.,0.,0.));
#877=DIRECTION('center_axis',(0.,0.,-1.));
#878=DIRECTION('ref_axis',(1.,0.,0.));
#879=DIRECTION('center_axis',(0.,0.,-1.));
#880=DIRECTION('ref_axis',(1.,0.,0.));
#881=DIRECTION('',(0.,0.,-1.));
#882=DIRECTION('center_axis',(0.,0.,1.));
#883=DIRECTION('ref_axis',(1.,0.,0.));
#884=DIRECTION('center_axis',(0.,0.,1.));
#885=DIRECTION('ref_axis',(1.,0.,0.));
#886=DIRECTION('center_axis',(0.,-1.,0.));
#887=DIRECTION('ref_axis',(-1.,0.,0.));
#888=DIRECTION('center_axis',(0.,0.,-1.));
#889=DIRECTION('ref_axis',(-1.,0.,0.));
#890=DIRECTION('center_axis',(0.,-1.,0.));
#891=DIRECTION('ref_axis',(1.,0.,0.));
#892=DIRECTION('center_axis',(0.,0.,-1.));
#893=DIRECTION('ref_axis',(1.,0.,0.));
#894=DIRECTION('center_axis',(0.,0.,-1.));
#895=DIRECTION('ref_axis',(1.,0.,0.));
#896=DIRECTION('center_axis',(0.,0.,-1.));
#897=DIRECTION('ref_axis',(1.,0.,0.));
#898=DIRECTION('',(0.,0.,-1.));
#899=DIRECTION('center_axis',(0.,0.,1.));
#900=DIRECTION('ref_axis',(1.,0.,0.));
#901=DIRECTION('center_axis',(0.,0.,1.));
#902=DIRECTION('ref_axis',(1.,0.,0.));
#903=DIRECTION('center_axis',(0.,-1.,0.));
#904=DIRECTION('ref_axis',(-1.,0.,0.));
#905=DIRECTION('center_axis',(0.5,0.866025403784438,0.));
#906=DIRECTION('ref_axis',(0.612372435695792,-0.353553390593276,0.707106781186549));
#907=DIRECTION('center_axis',(-0.500000000000002,-0.866025403784437,0.));
#908=DIRECTION('ref_axis',(0.612372435695792,-0.353553390593276,0.707106781186549));
#909=DIRECTION('',(-0.5,-0.866025403784438,0.));
#910=DIRECTION('center_axis',(0.,1.,0.));
#911=DIRECTION('ref_axis',(1.,0.,-3.00462919747432E-16));
#912=DIRECTION('center_axis',(0.,0.,1.));
#913=DIRECTION('ref_axis',(1.,0.,0.));
#914=DIRECTION('',(-0.866025403784437,0.500000000000002,0.));
#915=DIRECTION('',(0.5,0.866025403784439,0.));
#916=DIRECTION('',(0.499999999999999,-0.866025403784439,0.));
#917=DIRECTION('',(-0.866025403784437,-0.500000000000002,0.));
#918=DIRECTION('',(-0.5,0.866025403784439,0.));
#919=DIRECTION('',(1.,0.,0.));
#920=DIRECTION('center_axis',(0.500000000000002,0.866025403784437,0.));
#921=DIRECTION('ref_axis',(-0.866025403784437,0.500000000000002,0.));
#922=DIRECTION('center_axis',(0.500000000000002,0.866025403784437,0.));
#923=DIRECTION('ref_axis',(0.612372435695794,-0.353553390593268,-0.707106781186551));
#924=DIRECTION('',(0.,0.,1.));
#925=DIRECTION('center_axis',(-0.500000000000002,-0.866025403784437,0.));
#926=DIRECTION('ref_axis',(-0.612372435695792,0.353553390593273,0.70710678118655));
#927=DIRECTION('center_axis',(-0.5,0.866025403784439,0.));
#928=DIRECTION('ref_axis',(0.612372435695792,0.353553390593273,0.70710678118655));
#929=DIRECTION('',(-0.499999999999999,0.866025403784439,0.));
#930=DIRECTION('center_axis',(0.500000000000002,-0.866025403784437,0.));
#931=DIRECTION('ref_axis',(0.612372435695792,0.353553390593273,0.70710678118655));
#932=DIRECTION('center_axis',(-1.,0.,0.));
#933=DIRECTION('ref_axis',(0.,-1.,0.));
#934=DIRECTION('center_axis',(-0.5,-0.866025403784439,0.));
#935=DIRECTION('ref_axis',(-0.612372435695792,0.353553390593273,0.70710678118655));
#936=DIRECTION('',(-0.5,-0.866025403784439,0.));
#937=DIRECTION('center_axis',(0.5,-0.866025403784439,0.));
#938=DIRECTION('ref_axis',(-0.612372435695793,-0.353553390593271,-0.70710678118655));
#939=DIRECTION('center_axis',(-0.500000000000002,0.866025403784437,0.));
#940=DIRECTION('ref_axis',(-0.612372435695793,-0.353553390593271,-0.70710678118655));
#941=DIRECTION('',(0.499999999999999,-0.866025403784439,0.));
#942=DIRECTION('center_axis',(1.,0.,0.));
#943=DIRECTION('ref_axis',(0.,1.,0.));
#944=DIRECTION('center_axis',(0.5,0.866025403784439,0.));
#945=DIRECTION('ref_axis',(0.612372435695794,-0.353553390593268,-0.707106781186551));
#946=DIRECTION('',(0.5,0.866025403784439,0.));
#947=DIRECTION('center_axis',(0.5,-0.866025403784439,0.));
#948=DIRECTION('ref_axis',(-0.612372435695792,-0.353553390593273,0.70710678118655));
#949=DIRECTION('center_axis',(0.,1.,0.));
#950=DIRECTION('ref_axis',(-1.,0.,3.00462919747432E-16));
#951=DIRECTION('center_axis',(0.500000000000002,-0.866025403784437,0.));
#952=DIRECTION('ref_axis',(-0.612372435695792,-0.353553390593273,0.70710678118655));
#953=DIRECTION('center_axis',(0.,-1.,0.));
#954=DIRECTION('ref_axis',(1.,0.,0.));
#955=DIRECTION('',(1.,0.,0.));
#956=DIRECTION('',(0.,0.,1.));
#957=DIRECTION('',(-1.,0.,0.));
#958=DIRECTION('',(0.,0.,-1.));
#959=DIRECTION('',(1.,0.,0.));
#960=DIRECTION('center_axis',(0.404148347633637,-0.820543619983607,0.404193370565623));
#961=DIRECTION('ref_axis',(-0.580179640465233,-0.571583911341285,-0.58024427363433));
#962=DIRECTION('center_axis',(-0.0149253731343282,-0.999888610414581,0.));
#963=DIRECTION('ref_axis',(0.,0.,-1.));
#964=DIRECTION('center_axis',(-1.,0.,0.));
#965=DIRECTION('ref_axis',(0.,-1.,0.));
#966=DIRECTION('center_axis',(0.,0.,-1.));
#967=DIRECTION('ref_axis',(-0.999888610414581,0.014925373134328,0.));
#968=DIRECTION('center_axis',(-0.404148347633649,-0.820543619983603,0.404193370565619));
#969=DIRECTION('ref_axis',(0.580179640465244,-0.571583911341279,-0.580244273634326));
#970=DIRECTION('center_axis',(0.,0.,-1.));
#971=DIRECTION('ref_axis',(0.,-1.,0.));
#972=DIRECTION('center_axis',(1.,0.,0.));
#973=DIRECTION('ref_axis',(0.,0.,-1.));
#974=DIRECTION('center_axis',(0.0149253731343282,-0.999888610414581,0.));
#975=DIRECTION('ref_axis',(0.999888610414581,0.0149253731343282,0.));
#976=DIRECTION('center_axis',(1.,0.,0.));
#977=DIRECTION('ref_axis',(0.,-0.707106781186548,-0.707106781186547));
#978=DIRECTION('center_axis',(0.,0.,1.));
#979=DIRECTION('ref_axis',(1.,0.,0.));
#980=DIRECTION('center_axis',(0.,0.,-1.));
#981=DIRECTION('ref_axis',(5.2245789394125E-16,1.,0.));
#982=DIRECTION('center_axis',(0.404148347633637,-0.820543619983607,-0.404193370565622));
#983=DIRECTION('ref_axis',(-0.580179640465234,-0.571583911341284,0.58024427363433));
#984=DIRECTION('center_axis',(-0.0149253731343282,-0.999888610414581,0.));
#985=DIRECTION('ref_axis',(-0.999888610414581,0.0149253731343282,0.));
#986=DIRECTION('center_axis',(0.,0.,1.));
#987=DIRECTION('ref_axis',(0.,-1.,0.));
#988=DIRECTION('center_axis',(-1.,0.,0.));
#989=DIRECTION('ref_axis',(0.,0.,1.));
#990=DIRECTION('center_axis',(0.,0.,1.));
#991=DIRECTION('ref_axis',(-0.71236415306159,-0.701810026597543,0.));
#992=DIRECTION('',(0.,0.,-1.));
#993=DIRECTION('center_axis',(1.,0.,0.));
#994=DIRECTION('ref_axis',(0.,-0.707106781186548,0.707106781186547));
#995=DIRECTION('center_axis',(-0.40414834763363,-0.820543619983611,-0.404193370565622));
#996=DIRECTION('ref_axis',(0.580179640465231,-0.571583911341284,0.580244273634334));
#997=DIRECTION('center_axis',(1.,0.,0.));
#998=DIRECTION('ref_axis',(0.,-1.,0.));
#999=DIRECTION('center_axis',(0.,0.,1.));
#1000=DIRECTION('ref_axis',(0.999888610414581,0.014925373134328,0.));
#1001=DIRECTION('center_axis',(0.0149253731343282,-0.999888610414581,0.));
#1002=DIRECTION('ref_axis',(0.,0.,1.));
#1003=DIRECTION('center_axis',(0.,0.,1.));
#1004=DIRECTION('ref_axis',(0.712364153061577,-0.701810026597556,0.));
#1005=DIRECTION('',(0.,0.,1.));
#1006=DIRECTION('center_axis',(0.,0.,1.));
#1007=DIRECTION('ref_axis',(1.,0.,0.));
#1008=DIRECTION('center_axis',(0.,0.,1.));
#1009=DIRECTION('ref_axis',(5.2245789394125E-16,1.,0.));
#1010=DIRECTION('center_axis',(1.,0.,0.));
#1011=DIRECTION('ref_axis',(0.,-0.707106781186548,0.707106781186547));
#1012=DIRECTION('center_axis',(0.,0.,1.));
#1013=DIRECTION('ref_axis',(1.,-3.26536183713281E-16,0.));
#1014=DIRECTION('center_axis',(-0.500000000000002,0.866025403784437,0.));
#1015=DIRECTION('ref_axis',(-0.866025403784437,-0.500000000000002,0.));
#1016=DIRECTION('',(0.,0.,1.));
#1017=DIRECTION('center_axis',(0.866025403784439,0.5,0.));
#1018=DIRECTION('ref_axis',(-0.499999999999999,0.866025403784439,0.));
#1019=DIRECTION('',(0.,0.,1.));
#1020=DIRECTION('center_axis',(-0.866025403784439,0.5,0.));
#1021=DIRECTION('ref_axis',(-0.5,-0.866025403784439,0.));
#1022=CARTESIAN_POINT('',(0.,0.,0.));
#1023=CARTESIAN_POINT('Origin',(94.8208747477334,5.95,5.5));
#1024=CARTESIAN_POINT('',(91.2413030787577,0.750000000000006,5.5));
#1025=CARTESIAN_POINT('',(91.6743157806499,0.5,5.));
#1026=CARTESIAN_POINT('Origin',(91.6743157806499,0.500000000000006,5.5));
#1027=CARTESIAN_POINT('',(107.039230484541,27.112812921102,5.));
#1028=CARTESIAN_POINT('',(94.8208747477334,5.95,5.));
#1029=CARTESIAN_POINT('',(106.606217782649,27.362812921102,5.5));
#1030=CARTESIAN_POINT('Origin',(107.039230484541,27.112812921102,5.5));
#1031=CARTESIAN_POINT('',(94.3878620458412,6.2,5.5));
#1032=CARTESIAN_POINT('Ctrl Pts',(91.6743157806499,0.500000000000009,5.));
#1033=CARTESIAN_POINT('Ctrl Pts',(91.5447586832046,0.387800262371801,5.));
#1034=CARTESIAN_POINT('Ctrl Pts',(91.2419650427903,0.12557327766857,4.90858954080976));
#1035=CARTESIAN_POINT('Ctrl Pts',(91.0969655114603,4.85722573273506E-16,
4.64959965017094));
#1036=CARTESIAN_POINT('Ctrl Pts',(91.0969655114603,4.85722573273506E-16,
4.5));
#1037=CARTESIAN_POINT('Ctrl Pts',(91.5609533203853,0.565449846949797,5.));
#1038=CARTESIAN_POINT('Ctrl Pts',(91.4395730558455,0.448765217830395,5.0150188279228));
#1039=CARTESIAN_POINT('Ctrl Pts',(91.1504968594153,0.153538838426354,4.94817719073929));
#1040=CARTESIAN_POINT('Ctrl Pts',(91.0096990488606,4.83179700290256E-16,
4.66461837148305));
#1041=CARTESIAN_POINT('Ctrl Pts',(91.0096990488606,4.85722573273506E-16,
4.5));
#1042=CARTESIAN_POINT('Ctrl Pts',(91.3352436344994,0.695763394854715,5.10847321029059));
#1043=CARTESIAN_POINT('Ctrl Pts',(91.2294814405636,0.545393795917031,5.13594919818372));
#1044=CARTESIAN_POINT('Ctrl Pts',(90.9674355388465,0.157023591445011,5.06747491899743));
#1045=CARTESIAN_POINT('Ctrl Pts',(90.8353083570621,-0.046796514418474,4.70882096865082));
#1046=CARTESIAN_POINT('Ctrl Pts',(90.8353083570621,-0.046796514418474,4.5));
#1047=CARTESIAN_POINT('Ctrl Pts',(91.2413030787577,0.750000000000016,5.36910030610042));
#1048=CARTESIAN_POINT('Ctrl Pts',(91.1247526678286,0.547519096109661,5.37854209945865));
#1049=CARTESIAN_POINT('Ctrl Pts',(90.8449831375529,0.0629239886374873,5.23405044980047));
#1050=CARTESIAN_POINT('Ctrl Pts',(90.7075860408679,-0.17442502649024,4.76904005739827));
#1051=CARTESIAN_POINT('Ctrl Pts',(90.7075860408679,-0.17442502649024,4.5));
#1052=CARTESIAN_POINT('Ctrl Pts',(91.2413030787577,0.750000000000017,5.5));
#1053=CARTESIAN_POINT('Ctrl Pts',(91.1117459813124,0.525600524743601,5.5));
#1054=CARTESIAN_POINT('Ctrl Pts',(90.808952340898,0.00114655533714148,5.31717908161951));
#1055=CARTESIAN_POINT('Ctrl Pts',(90.6639528095681,-0.249999999999999,4.79919930034189));
#1056=CARTESIAN_POINT('Ctrl Pts',(90.6639528095681,-0.249999999999999,4.5));
#1057=CARTESIAN_POINT('',(90.8082903768655,9.36750677027475E-16,5.16143782776615));
#1058=CARTESIAN_POINT('',(91.0969655114603,0.,4.5));
#1059=CARTESIAN_POINT('Ctrl Pts',(90.8082903768655,2.08166817117217E-16,
5.16143782776615));
#1060=CARTESIAN_POINT('Ctrl Pts',(90.8082903768655,2.08166817117217E-16,
5.09990205790762));
#1061=CARTESIAN_POINT('Ctrl Pts',(90.8149653995389,2.63004620114816E-12,
5.03854116107601));
#1062=CARTESIAN_POINT('Ctrl Pts',(90.8452692405023,2.6300526227704E-12,
4.89831027620466));
#1063=CARTESIAN_POINT('Ctrl Pts',(90.8735701420829,-4.20353869427975E-16,
4.82119960474267));
#1064=CARTESIAN_POINT('Ctrl Pts',(90.9669093537196,-4.10508563250882E-16,
4.64330021952224));
#1065=CARTESIAN_POINT('Ctrl Pts',(91.0348346130354,6.30413611515063E-20,
4.56246978265969));
#1066=CARTESIAN_POINT('Ctrl Pts',(91.0953705121618,-8.39816089403469E-22,
4.50159720554736));
#1067=CARTESIAN_POINT('Ctrl Pts',(91.0961674580415,4.85722573273506E-16,
4.50079805341872));
#1068=CARTESIAN_POINT('Ctrl Pts',(91.0969655114603,4.85722573273506E-16,
4.5));
#1069=CARTESIAN_POINT('Origin',(91.6743157806499,0.5,4.5));
#1070=CARTESIAN_POINT('Origin',(91.2413030787577,0.749999999999998,4.5));
#1071=CARTESIAN_POINT('Origin',(90.8082903768655,0.,5.));
#1072=CARTESIAN_POINT('',(106.606217782649,27.362812921102,6.5));
#1073=CARTESIAN_POINT('',(106.606217782649,27.362812921102,5.));
#1074=CARTESIAN_POINT('',(90.8082903768655,0.,6.5));
#1075=CARTESIAN_POINT('',(93.7451426911728,5.08677742270662,6.5));
#1076=CARTESIAN_POINT('',(90.8082903768655,0.,5.));
#1077=CARTESIAN_POINT('Ctrl Pts',(88.9030344885397,4.85722573273506E-16,
4.5));
#1078=CARTESIAN_POINT('Ctrl Pts',(88.9030344885397,4.85722573273506E-16,
4.61219973762821));
#1079=CARTESIAN_POINT('Ctrl Pts',(88.7974856984963,0.0914079335162825,4.87442882730712));
#1080=CARTESIAN_POINT('Ctrl Pts',(88.4984270159438,0.350400349829059,5.));
#1081=CARTESIAN_POINT('Ctrl Pts',(88.3256842193501,0.500000000000002,5.));
#1082=CARTESIAN_POINT('Ctrl Pts',(88.9903009511394,4.85722573273506E-16,
4.5));
#1083=CARTESIAN_POINT('Ctrl Pts',(88.9903009511394,4.84554927515891E-16,
4.62346377861229));
#1084=CARTESIAN_POINT('Ctrl Pts',(88.8879778648206,0.111376135057195,4.9125532817269));
#1085=CARTESIAN_POINT('Ctrl Pts',(88.6008870323345,0.409870341457255,5.02002510389707));
#1086=CARTESIAN_POINT('Ctrl Pts',(88.4390466796147,0.565449846949789,5.));
#1087=CARTESIAN_POINT('Ctrl Pts',(89.1646919120192,-0.0467960483560338,
4.5));
#1088=CARTESIAN_POINT('Ctrl Pts',(89.1646919120192,-0.0467960483560338,
4.65661572648811));
#1089=CARTESIAN_POINT('Ctrl Pts',(89.0688817483486,0.100705813376485,5.02327685317841));
#1090=CARTESIAN_POINT('Ctrl Pts',(88.8057741976891,0.495271504793809,5.14510604376941));
#1091=CARTESIAN_POINT('Ctrl Pts',(88.6647579391081,0.695764303377387,5.10847139324523));
#1092=CARTESIAN_POINT('Ctrl Pts',(89.2924139591321,-0.174425026490239,4.5));
#1093=CARTESIAN_POINT('Ctrl Pts',(89.2924139591321,-0.174425026490239,4.7017800430487));
#1094=CARTESIAN_POINT('Ctrl Pts',(89.1926611646229,-0.0018929125601275,
5.17368255057517));
#1095=CARTESIAN_POINT('Ctrl Pts',(88.9140974691478,0.480025461479532,5.38168936391139));
#1096=CARTESIAN_POINT('Ctrl Pts',(88.7586969212423,0.750000000000003,5.36910030610042));
#1097=CARTESIAN_POINT('Ctrl Pts',(89.3360471904319,-0.249999999999998,4.5));
#1098=CARTESIAN_POINT('Ctrl Pts',(89.3360471904319,-0.249999999999998,4.72439947525641));
#1099=CARTESIAN_POINT('Ctrl Pts',(89.2304984003886,-0.0671841329674344,
5.24885765461424));
#1100=CARTESIAN_POINT('Ctrl Pts',(88.931439717836,0.450800699658118,5.5));
#1101=CARTESIAN_POINT('Ctrl Pts',(88.7586969212423,0.750000000000004,5.5));
#1102=CARTESIAN_POINT('',(88.7586969212423,0.749999999999997,5.5));
#1103=CARTESIAN_POINT('',(88.3256842193501,0.5,5.));
#1104=CARTESIAN_POINT('Origin',(88.3256842193501,0.5,5.5));
#1105=CARTESIAN_POINT('',(88.9030344885397,0.,4.5));
#1106=CARTESIAN_POINT('Origin',(88.3256842193501,0.5,4.5));
#1107=CARTESIAN_POINT('',(89.1917096231345,3.12250225675825E-16,5.16143782776615));
#1108=CARTESIAN_POINT('Ctrl Pts',(88.9030344885397,4.85722573273506E-16,
4.5));
#1109=CARTESIAN_POINT('Ctrl Pts',(88.9038325419585,4.85722573273506E-16,
4.50079805341877));
#1110=CARTESIAN_POINT('Ctrl Pts',(88.9046294878382,6.93889390390723E-17,
4.50159720554731));
#1111=CARTESIAN_POINT('Ctrl Pts',(88.9615878644114,6.93889390390723E-17,
4.5588723632667));
#1112=CARTESIAN_POINT('Ctrl Pts',(89.010836647872,-4.85722573273506E-16,
4.61948125373637));
#1113=CARTESIAN_POINT('Ctrl Pts',(89.0951172281848,-4.85722573273506E-16,
4.75440344844667));
#1114=CARTESIAN_POINT('Ctrl Pts',(89.1286596006686,8.78005344149888E-11,
4.82684883781495));
#1115=CARTESIAN_POINT('Ctrl Pts',(89.1781986162451,8.78005266898054E-11,
4.98679836395491));
#1116=CARTESIAN_POINT('Ctrl Pts',(89.1917096231345,5.55111512312578E-16,
5.07385119145892));
#1117=CARTESIAN_POINT('Ctrl Pts',(89.1917096231345,5.55111512312578E-16,
5.16143782776615));
#1118=CARTESIAN_POINT('Origin',(88.7586969212423,0.749999999999997,4.5));
#1119=CARTESIAN_POINT('Origin',(77.2801615493748,19.631406460551,5.5));
#1120=CARTESIAN_POINT('',(73.3937822173509,27.362812921102,5.5));
#1121=CARTESIAN_POINT('',(72.9607695154587,27.112812921102,5.));
#1122=CARTESIAN_POINT('Origin',(72.9607695154587,27.112812921102,5.5));
#1123=CARTESIAN_POINT('',(77.2801615493748,19.631406460551,5.));
#1124=CARTESIAN_POINT('',(77.713174251267,19.881406460551,5.5));
#1125=CARTESIAN_POINT('Origin',(73.3937822173509,27.362812921102,5.));
#1126=CARTESIAN_POINT('',(89.1917096231345,0.,6.5));
#1127=CARTESIAN_POINT('',(89.1917096231345,0.,5.));
#1128=CARTESIAN_POINT('',(73.3937822173509,27.362812921102,6.5));
#1129=CARTESIAN_POINT('',(78.3558936059353,18.7681838832577,6.5));
#1130=CARTESIAN_POINT('',(73.3937822173509,27.362812921102,5.));
#1131=CARTESIAN_POINT('Origin',(65.231673451765,14.3,4.5));
#1132=CARTESIAN_POINT('',(67.531673451765,14.3,5.));
#1133=CARTESIAN_POINT('Origin',(65.231673451765,14.3,5.));
#1134=CARTESIAN_POINT('',(67.031673451765,14.3,4.5));
#1135=CARTESIAN_POINT('Origin',(67.531673451765,14.3,4.5));
#1136=CARTESIAN_POINT('',(63.4316734517651,14.3,4.5));
#1137=CARTESIAN_POINT('Origin',(65.231673451765,14.3,4.5));
#1138=CARTESIAN_POINT('Origin',(65.231673451765,14.3,4.5));
#1139=CARTESIAN_POINT('Origin',(65.231673451765,14.3,5.));
#1140=CARTESIAN_POINT('',(63.4316734517651,14.3,0.5));
#1141=CARTESIAN_POINT('',(63.4316734517651,14.3,5.));
#1142=CARTESIAN_POINT('Origin',(65.231673451765,14.3,0.5));
#1143=CARTESIAN_POINT('Origin',(90.,17.,5.));
#1144=CARTESIAN_POINT('',(123.496268448888,0.5,5.));
#1145=CARTESIAN_POINT('',(73.,0.5,5.));
#1146=CARTESIAN_POINT('',(56.5037315511115,0.499999999999997,5.));
#1147=CARTESIAN_POINT('Origin',(90.,1.11022302462516E-14,5.));
#1148=CARTESIAN_POINT('',(73.,0.5,5.));
#1149=CARTESIAN_POINT('',(75.0392304845413,28.3128129211021,5.));
#1150=CARTESIAN_POINT('',(77.9837168574084,30.012812921102,5.));
#1151=CARTESIAN_POINT('',(90.,2.39999999999999,5.));
#1152=CARTESIAN_POINT('',(87.0555136271329,7.5,5.));
#1153=CARTESIAN_POINT('',(104.960769515459,28.312812921102,5.));
#1154=CARTESIAN_POINT('',(100.641377481543,20.831406460551,5.));
#1155=CARTESIAN_POINT('',(102.622500925241,29.662812921102,5.));
#1156=CARTESIAN_POINT('',(92.3,28.6,5.));
#1157=CARTESIAN_POINT('Origin',(90.,28.6,5.));
#1158=CARTESIAN_POINT('',(117.068326548235,14.3,5.));
#1159=CARTESIAN_POINT('Origin',(114.768326548235,14.3,5.));
#1160=CARTESIAN_POINT('Origin',(65.231673451765,14.3,0.5));
#1161=CARTESIAN_POINT('',(62.9316734517651,14.3,0.));
#1162=CARTESIAN_POINT('Origin',(65.231673451765,14.3,0.));
#1163=CARTESIAN_POINT('Origin',(62.9316734517651,14.3,0.5));
#1164=CARTESIAN_POINT('Origin',(90.,17.,0.));
#1165=CARTESIAN_POINT('',(56.5037315511115,0.5,0.));
#1166=CARTESIAN_POINT('',(123.496268448888,0.499999999999999,0.));
#1167=CARTESIAN_POINT('',(73.,0.5,0.));
#1168=CARTESIAN_POINT('Origin',(90.,1.11022302462516E-14,0.));
#1169=CARTESIAN_POINT('',(87.7,28.6,0.));
#1170=CARTESIAN_POINT('Origin',(90.,28.6,0.));
#1171=CARTESIAN_POINT('',(112.468326548235,14.3,0.));
#1172=CARTESIAN_POINT('Origin',(114.768326548235,14.3,0.));
#1173=CARTESIAN_POINT('Origin',(90.,28.6,4.5));
#1174=CARTESIAN_POINT('',(91.8,28.6,4.5));
#1175=CARTESIAN_POINT('Origin',(92.3,28.6,4.5));
#1176=CARTESIAN_POINT('',(88.2,28.6,4.5));
#1177=CARTESIAN_POINT('Origin',(90.,28.6,4.5));
#1178=CARTESIAN_POINT('Origin',(90.,28.6,4.5));
#1179=CARTESIAN_POINT('Origin',(90.,28.6,5.));
#1180=CARTESIAN_POINT('',(88.2,28.6,0.5));
#1181=CARTESIAN_POINT('',(88.2,28.6,5.));
#1182=CARTESIAN_POINT('Origin',(90.,28.6,0.5));
#1183=CARTESIAN_POINT('Origin',(90.,28.6,0.5));
#1184=CARTESIAN_POINT('Origin',(87.7,28.6,0.5));
#1185=CARTESIAN_POINT('Origin',(114.768326548235,14.3,4.5));
#1186=CARTESIAN_POINT('',(116.568326548235,14.3,4.5));
#1187=CARTESIAN_POINT('Origin',(117.068326548235,14.3,4.5));
#1188=CARTESIAN_POINT('',(112.968326548235,14.3,4.5));
#1189=CARTESIAN_POINT('Origin',(114.768326548235,14.3,4.5));
#1190=CARTESIAN_POINT('Origin',(114.768326548235,14.3,4.5));
#1191=CARTESIAN_POINT('Origin',(114.768326548235,14.3,5.));
#1192=CARTESIAN_POINT('',(112.968326548235,14.3,0.5));
#1193=CARTESIAN_POINT('',(112.968326548235,14.3,5.));
#1194=CARTESIAN_POINT('Origin',(114.768326548235,14.3,0.5));
#1195=CARTESIAN_POINT('Origin',(114.768326548235,14.3,0.5));
#1196=CARTESIAN_POINT('Origin',(112.468326548235,14.3,0.5));
#1197=CARTESIAN_POINT('Origin',(93.3121299892806,5.33677742270663,6.5));
#1198=CARTESIAN_POINT('',(106.173205080757,27.612812921102,7.));
#1199=CARTESIAN_POINT('Origin',(106.173205080757,27.612812921102,6.5));
#1200=CARTESIAN_POINT('',(90.2309401076758,0.,7.));
#1201=CARTESIAN_POINT('',(93.3121299892806,5.33677742270663,7.));
#1202=CARTESIAN_POINT('Origin',(90.2309401076758,0.,6.5));
#1203=CARTESIAN_POINT('Origin',(90.,14.031406460551,7.));
#1204=CARTESIAN_POINT('',(105.826794919243,27.812812921102,7.));
#1205=CARTESIAN_POINT('',(105.393782217351,28.062812921102,7.));
#1206=CARTESIAN_POINT('',(90.,0.399999999999989,7.));
#1207=CARTESIAN_POINT('',(100.864683530659,19.2181838832576,7.));
#1208=CARTESIAN_POINT('',(74.1732050807569,27.812812921102,7.));
#1209=CARTESIAN_POINT('',(86.8322075780168,5.88677742270663,7.));
#1210=CARTESIAN_POINT('',(73.8267949192431,27.612812921102,7.));
#1211=CARTESIAN_POINT('',(73.3937822173509,27.362812921102,7.));
#1212=CARTESIAN_POINT('',(89.7690598923242,0.,7.));
#1213=CARTESIAN_POINT('',(78.7889063078275,19.0181838832577,7.));
#1214=CARTESIAN_POINT('',(90.8082903768655,0.,7.));
#1215=CARTESIAN_POINT('Origin',(106.606217782649,27.362812921102,5.));
#1216=CARTESIAN_POINT('',(105.393782217351,28.062812921102,5.5));
#1217=CARTESIAN_POINT('Origin',(104.960769515459,28.312812921102,5.5));
#1218=CARTESIAN_POINT('',(105.393782217351,28.062812921102,6.5));
#1219=CARTESIAN_POINT('',(105.393782217351,28.062812921102,5.));
#1220=CARTESIAN_POINT('Origin',(105.826794919243,27.812812921102,6.5));
#1221=CARTESIAN_POINT('Origin',(86.8322075780168,5.88677742270663,6.5));
#1222=CARTESIAN_POINT('',(90.,1.39999999999999,6.5));
#1223=CARTESIAN_POINT('',(74.6062177826491,28.062812921102,6.5));
#1224=CARTESIAN_POINT('',(87.265220279909,6.13677742270663,6.5));
#1225=CARTESIAN_POINT('Origin',(74.1732050807569,27.812812921102,6.5));
#1226=CARTESIAN_POINT('Origin',(90.,0.399999999999988,6.5));
#1227=CARTESIAN_POINT('Origin',(100.864683530659,19.2181838832576,6.5));
#1228=CARTESIAN_POINT('',(100.431670828766,19.4681838832576,6.5));
#1229=CARTESIAN_POINT('Origin',(87.0555136271329,7.5,5.5));
#1230=CARTESIAN_POINT('',(74.6062177826491,28.062812921102,5.5));
#1231=CARTESIAN_POINT('Origin',(75.0392304845413,28.312812921102,5.5));
#1232=CARTESIAN_POINT('',(90.,1.39999999999999,5.5));
#1233=CARTESIAN_POINT('',(86.6225009252407,7.25,5.5));
#1234=CARTESIAN_POINT('Origin',(90.,2.39999999999999,5.5));
#1235=CARTESIAN_POINT('Origin',(100.641377481543,20.831406460551,5.5));
#1236=CARTESIAN_POINT('',(101.074390183435,20.581406460551,5.5));
#1237=CARTESIAN_POINT('Origin',(78.7889063078275,19.0181838832577,6.5));
#1238=CARTESIAN_POINT('Origin',(89.7690598923242,-2.22044604925031E-15,
6.5));
#1239=CARTESIAN_POINT('Origin',(73.8267949192431,27.612812921102,6.5));
#1240=CARTESIAN_POINT('Origin',(56.,0.,0.));
#1241=CARTESIAN_POINT('',(56.5037315511115,0.,4.5));
#1242=CARTESIAN_POINT('',(73.,0.,4.5));
#1243=CARTESIAN_POINT('',(56.5037315511115,0.,0.5));
#1244=CARTESIAN_POINT('',(56.5037315511115,0.,0.));
#1245=CARTESIAN_POINT('',(123.496268448888,0.,0.5));
#1246=CARTESIAN_POINT('',(73.,0.,0.5));
#1247=CARTESIAN_POINT('',(123.496268448888,0.,4.5));
#1248=CARTESIAN_POINT('',(123.496268448888,0.,0.));
#1249=CARTESIAN_POINT('',(73.,0.,4.5));
#1250=CARTESIAN_POINT('Origin',(56.5037315511115,0.5,0.5));
#1251=CARTESIAN_POINT('',(56.0037872459043,0.507462686567161,0.5));
#1252=CARTESIAN_POINT('Origin',(56.5037315511115,0.499999999999997,0.5));
#1253=CARTESIAN_POINT('Origin',(56.5037315511115,0.5,0.5));
#1254=CARTESIAN_POINT('Origin',(56.5037315511115,0.5,0.5));
#1255=CARTESIAN_POINT('Origin',(123.496268448888,0.5,0.5));
#1256=CARTESIAN_POINT('',(123.996212754096,0.507462686567164,0.5));
#1257=CARTESIAN_POINT('Origin',(123.496268448888,0.5,0.5));
#1258=CARTESIAN_POINT('Origin',(123.496268448888,0.5,0.5));
#1259=CARTESIAN_POINT('Origin',(123.496268448888,0.499999999999999,0.5));
#1260=CARTESIAN_POINT('Origin',(73.,0.5,0.5));
#1261=CARTESIAN_POINT('Origin',(90.,1.11022302462516E-14,0.5));
#1262=CARTESIAN_POINT('Origin',(90.,1.11022302462516E-14,0.5));
#1263=CARTESIAN_POINT('Origin',(56.5037315511115,0.5,4.5));
#1264=CARTESIAN_POINT('',(56.0037872459043,0.507462686567164,4.5));
#1265=CARTESIAN_POINT('Origin',(56.5037315511115,0.499999999999997,4.5));
#1266=CARTESIAN_POINT('Origin',(56.5037315511115,0.5,4.5));
#1267=CARTESIAN_POINT('Origin',(56.5037315511115,0.5,4.5));
#1268=CARTESIAN_POINT('Origin',(56.5037315511115,0.5,0.));
#1269=CARTESIAN_POINT('',(56.0037872459043,0.507462686567164,0.));
#1270=CARTESIAN_POINT('Origin',(73.,0.5,4.5));
#1271=CARTESIAN_POINT('Origin',(123.496268448888,0.5,4.5));
#1272=CARTESIAN_POINT('Origin',(123.496268448888,0.5,4.5));
#1273=CARTESIAN_POINT('',(123.996212754096,0.507462686567163,4.5));
#1274=CARTESIAN_POINT('Origin',(123.496268448888,0.5,4.5));
#1275=CARTESIAN_POINT('Origin',(123.496268448888,0.499999999999999,4.5));
#1276=CARTESIAN_POINT('Origin',(123.496268448888,0.5,0.));
#1277=CARTESIAN_POINT('',(123.996212754096,0.507462686567164,0.));
#1278=CARTESIAN_POINT('Origin',(90.,1.11022302462516E-14,4.5));
#1279=CARTESIAN_POINT('Origin',(90.,1.11022302462516E-14,4.5));
#1280=CARTESIAN_POINT('Origin',(73.,0.5,4.5));
#1281=CARTESIAN_POINT('Origin',(90.,1.11022302462516E-14,0.));
#1282=CARTESIAN_POINT('Origin',(74.6062177826491,28.062812921102,5.));
#1283=CARTESIAN_POINT('',(74.6062177826491,28.062812921102,5.));
#1284=CARTESIAN_POINT('Origin',(90.,1.39999999999999,5.));
#1285=CARTESIAN_POINT('',(90.,1.39999999999999,5.));
#1286=CARTESIAN_POINT('Origin',(105.393782217351,28.062812921102,5.));
#1287=UNCERTAINTY_MEASURE_WITH_UNIT(LENGTH_MEASURE(0.01),#1291,
'DISTANCE_ACCURACY_VALUE',
'Maximum model space distance between geometric entities at asserted c
onnectivities');
#1288=UNCERTAINTY_MEASURE_WITH_UNIT(LENGTH_MEASURE(0.01),#1291,
'DISTANCE_ACCURACY_VALUE',
'Maximum model space distance between geometric entities at asserted c
onnectivities');
#1289=(
GEOMETRIC_REPRESENTATION_CONTEXT(3)
GLOBAL_UNCERTAINTY_ASSIGNED_CONTEXT((#1287))
GLOBAL_UNIT_ASSIGNED_CONTEXT((#1291,#1293,#1294))
REPRESENTATION_CONTEXT('','3D')
);
#1290=(
GEOMETRIC_REPRESENTATION_CONTEXT(3)
GLOBAL_UNCERTAINTY_ASSIGNED_CONTEXT((#1288))
GLOBAL_UNIT_ASSIGNED_CONTEXT((#1291,#1293,#1294))
REPRESENTATION_CONTEXT('','3D')
);
#1291=(
LENGTH_UNIT()
NAMED_UNIT(*)
SI_UNIT(.MILLI.,.METRE.)
);
#1292=(
LENGTH_UNIT()
NAMED_UNIT(*)
SI_UNIT($,.METRE.)
);
#1293=(
NAMED_UNIT(*)
PLANE_ANGLE_UNIT()
SI_UNIT($,.RADIAN.)
);
#1294=(
NAMED_UNIT(*)
SI_UNIT($,.STERADIAN.)
SOLID_ANGLE_UNIT()
);
#1295=SHAPE_DEFINITION_REPRESENTATION(#1296,#1297);
#1296=PRODUCT_DEFINITION_SHAPE('',$,#1299);
#1297=SHAPE_REPRESENTATION('',(#696),#1289);
#1298=PRODUCT_DEFINITION_CONTEXT('part definition',#1303,'design');
#1299=PRODUCT_DEFINITION('triangle brackets','triangle brackets v12',#1300,
#1298);
#1300=PRODUCT_DEFINITION_FORMATION('',$,#1305);
#1301=PRODUCT_RELATED_PRODUCT_CATEGORY('triangle brackets v12',
'triangle brackets v12',(#1305));
#1302=APPLICATION_PROTOCOL_DEFINITION('international standard',
'automotive_design',2009,#1303);
#1303=APPLICATION_CONTEXT(
'Core Data for Automotive Mechanical Design Process');
#1304=PRODUCT_CONTEXT('part definition',#1303,'mechanical');
#1305=PRODUCT('triangle brackets','triangle brackets v12',$,(#1304));
#1306=PRESENTATION_STYLE_ASSIGNMENT((#1307));
#1307=SURFACE_STYLE_USAGE(.BOTH.,#1308);
#1308=SURFACE_SIDE_STYLE('',(#1309));
#1309=SURFACE_STYLE_FILL_AREA(#1310);
#1310=FILL_AREA_STYLE('Steel - Satin',(#1311));
#1311=FILL_AREA_STYLE_COLOUR('Steel - Satin',#1312);
#1312=COLOUR_RGB('Steel - Satin',0.627450980392157,0.627450980392157,0.627450980392157);
ENDSEC;
END-ISO-10303-21;
