<?xml version="1.0" encoding="UTF-8"?>
<svg xmlns="http://www.w3.org/2000/svg" width="1240" height="1000" viewBox="0 0 1240 1000" font-family="Arial">
<rect x="0" y="0" width="1240" height="1000" fill="#fff"/>
<rect x="12.00" y="12.00" width="1216.00" height="976.00" stroke="#123" stroke-width="1.5" fill="none"/>
<text x="40.00" y="50.00" font-family="Arial" font-size="20" fill="#123" font-weight="bold">CORNER BRACKET (CORNER)</text>
<text x="40.00" y="72.00" font-family="Arial" font-size="13" fill="#4a5568">heat-set insert position</text>
<text x="140.00" y="150.00" font-family="Arial" font-size="17" fill="#123" font-weight="bold">TOP VIEW    INSERT FACE</text>
<path d="M 428.00 308.50 L 324.00 250.00 L 169.35 250.00 A 442.00 442.00 0 0 0 169.35 510.00 L 324.00 510.00 L 428.00 451.50 Z" stroke="#123" stroke-width="1.7" fill="#ffffff"/>
<line x1="188.60" y1="380.00" x2="251.40" y2="380.00" stroke="#c33" stroke-width="0.8" fill="none" stroke-dasharray="10 3 2 3"/>
<line x1="220.00" y1="348.60" x2="220.00" y2="411.40" stroke="#c33" stroke-width="0.8" fill="none" stroke-dasharray="10 3 2 3"/>
<circle cx="220.00" cy="380.00" r="23.40" stroke="#123" stroke-width="1.4" fill="#dfe7f2"/>
<line x1="243.40" y1="356.60" x2="560.00" y2="214.00" stroke="#123" stroke-width="0.8" fill="none"/>
<line x1="560.00" y1="214.00" x2="626.00" y2="214.00" stroke="#123" stroke-width="0.8" fill="none"/>
<text x="630.00" y="210.00" font-family="Arial" font-size="16" fill="#123" font-weight="bold">1x  &#216;3.6 x 7 deep</text>
<text x="630.00" y="230.00" font-family="Arial" font-size="13" fill="#123">M3x4x5 heat-set insert</text>
<line x1="428.00" y1="451.50" x2="428.00" y2="566.00" stroke="#123" stroke-width="0.5" fill="none"/>
<line x1="220.00" y1="380.00" x2="220.00" y2="566.00" stroke="#123" stroke-width="0.5" fill="none"/>
<line x1="220.00" y1="544.00" x2="428.00" y2="544.00" stroke="#123" stroke-width="0.8" fill="none"/>
<line x1="220.00" y1="540.00" x2="220.00" y2="548.00" stroke="#123" stroke-width="0.8" fill="none"/>
<line x1="428.00" y1="540.00" x2="428.00" y2="548.00" stroke="#123" stroke-width="0.8" fill="none"/>
<text x="324.00" y="540.00" font-family="Arial" font-size="12" fill="#4a5568" text-anchor="middle">16</text>
<line x1="169.35" y1="250.00" x2="103.80" y2="250.00" stroke="#123" stroke-width="0.5" fill="none"/>
<line x1="169.35" y1="510.00" x2="103.80" y2="510.00" stroke="#123" stroke-width="0.5" fill="none"/>
<line x1="119.80" y1="250.00" x2="119.80" y2="510.00" stroke="#123" stroke-width="0.8" fill="none"/>
<line x1="115.80" y1="250.00" x2="123.80" y2="250.00" stroke="#123" stroke-width="0.8" fill="none"/>
<line x1="115.80" y1="510.00" x2="123.80" y2="510.00" stroke="#123" stroke-width="0.8" fill="none"/>
<text x="115.80" y="380.00" font-family="Arial" font-size="12" fill="#4a5568" text-anchor="middle" transform="rotate(-90 115.80 380.00)">20</text>
<text x="700.00" y="150.00" font-family="Arial" font-size="17" fill="#123" font-weight="bold">SIDE VIEW</text>
<path d="M 683.29 784.89 L 826.41 886.23 L 840.72 896.36 L 917.20 788.34 L 917.20 677.03 L 826.58 612.87 L 812.26 602.73 Z M 683.29 784.89 L 826.41 886.23 L 840.72 896.36 L 917.20 788.34 L 917.20 677.03 L 826.58 612.87 L 812.26 602.73 Z M 880.00 764.40 L 917.20 764.40 L 917.20 380.00 L 880.00 380.00 Z M 842.80 425.88 L 883.72 528.80 L 883.72 425.88 Z M 784.52 429.60 L 917.20 429.60 L 917.20 380.00 L 784.52 380.00 Z" fill="#ffffff" fill-rule="nonzero" stroke="#123" stroke-width="3.4"/>
<path d="M 683.29 784.89 L 826.41 886.23 L 840.72 896.36 L 917.20 788.34 L 917.20 677.03 L 826.58 612.87 L 812.26 602.73 Z M 683.29 784.89 L 826.41 886.23 L 840.72 896.36 L 917.20 788.34 L 917.20 677.03 L 826.58 612.87 L 812.26 602.73 Z M 880.00 764.40 L 917.20 764.40 L 917.20 380.00 L 880.00 380.00 Z M 842.80 425.88 L 883.72 528.80 L 883.72 425.88 Z M 784.52 429.60 L 917.20 429.60 L 917.20 380.00 L 784.52 380.00 Z" fill="#ffffff" fill-rule="nonzero" stroke="none"/>
<rect x="806.84" y="380.00" width="22.32" height="43.40" stroke="#3b4657" stroke-width="1.0" fill="#e9eef5" stroke-dasharray="5 3"/>
<line x1="829.16" y1="380.00" x2="1010.00" y2="214.00" stroke="#123" stroke-width="0.8" fill="none"/>
<line x1="1010.00" y1="214.00" x2="1066.00" y2="214.00" stroke="#123" stroke-width="0.8" fill="none"/>
<text x="1070.00" y="214.00" font-family="Arial" font-size="13" fill="#123">opens on this face</text>
<line x1="917.20" y1="429.60" x2="983.20" y2="429.60" stroke="#123" stroke-width="0.5" fill="none"/>
<line x1="917.20" y1="380.00" x2="983.20" y2="380.00" stroke="#123" stroke-width="0.5" fill="none"/>
<line x1="957.20" y1="380.00" x2="957.20" y2="429.60" stroke="#123" stroke-width="0.8" fill="none"/>
<line x1="953.20" y1="380.00" x2="961.20" y2="380.00" stroke="#123" stroke-width="0.8" fill="none"/>
<line x1="953.20" y1="429.60" x2="961.20" y2="429.60" stroke="#123" stroke-width="0.8" fill="none"/>
<text x="953.20" y="404.80" font-family="Arial" font-size="12" fill="#4a5568" text-anchor="middle" transform="rotate(-90 953.20 404.80)">8</text>
<rect x="810.00" y="902.00" width="418.00" height="74.00" stroke="#123" stroke-width="1.7" fill="none"/>
<line x1="810.00" y1="939.00" x2="1228.00" y2="939.00" stroke="#123" stroke-width="0.8" fill="none"/>
<line x1="1019.00" y1="939.00" x2="1019.00" y2="976.00" stroke="#123" stroke-width="0.8" fill="none"/>
<text x="820.00" y="928.00" font-family="Arial" font-size="17" fill="#123" font-weight="bold">CORNER_BRACKET_CORNER</text>
<text x="820.00" y="963.00" font-family="Arial" font-size="14" fill="#123">MJF nylon (PA12)</text>
<text x="1029.00" y="963.00" font-family="Arial" font-size="12" fill="#4a5568">mm  (not to scale)</text>
</svg>
